<svg xmlns="http://www.w3.org/2000/svg" id="Q-2" viewBox="0.783 -54.365 80.568 53.857">
  <g id="svgDrawingGroup">
    <g id="workspacesBackGroup">
      <path id="12221" class="room non-bookable" d="m39.627-32.19-.068.02h.086l.082.03.067.055.043.075.015.086-.015.086-.043.075-.067.056-.082.03h-.086l-.082-.03-.067-.056-.043-.075-.015-.086.015-.086.043-.075.067-.056.1-.049h-3.556l-.068.02h.086l.082.03.067.055.043.075.015.086-.015.086-.043.075-.067.056-.082.03h-.086l-.082-.03-.067-.056-.043-.075-.015-.086.015-.086.043-.075.067-.056.1-.049h-3.543l-.068.02h.086l.082.03.067.055.043.075.015.086-.015.086-.043.075-.067.056-.082.03h-.086l-.082-.03-.067-.056-.043-.075-.015-.086.015-.086.043-.075.067-.056.1-.049H28.82l-.068.02h.086l.082.03.067.055.043.075.015.086-.015.086-.043.075-.067.056-.082.03h-.086l-.082-.03-.067-.056-.043-.075-.015-.086.015-.086.043-.075.067-.056.1-.049h-3.54l-.068.02h.086l.082.03.067.055.043.075.015.086-.015.086-.043.075-.067.056-.082.03h-.086l-.082-.03-.067-.056-.043-.075-.015-.086.015-.086.043-.075.067-.056.1-.049h-3.56l-.068.02h.086l.082.03.067.055.043.075.015.086-.015.086-.043.075-.067.056-.082.03h-.086l-.082-.03-.067-.056-.043-.075-.015-.086.015-.086.043-.075.067-.056.1-.049h-9.809v-.08h-.837l-1.892 1.907.044.044 3.67.029h8.15v.7h.5v3.1h1.6v-3.1h4.85v1.57h4.55v-1.57h14.391l.004.3v.2h2.288v-.2h.2v.2h2.289v-.2h.2v.2h2.288v-.2h.2v2.3h2.84v-3.3h11.87v-1.896h-.022v-.1h-3.46v.125h-5.538v-.125h-5.891v.096h-.04l-.068.039h.086l.082.03.067.055.043.075.015.086-.015.086-.043.075-.067.056-.082.03h-.086l-.082-.03-.067-.056-.043-.075-.015-.086.015-.086.043-.075.067-.056.1-.068h-3.54l-.068.02h.086l.082.03.067.055.043.075.015.086-.015.086-.043.075-.067.056-.082.03h-.086l-.082-.03-.067-.056-.043-.075-.015-.086.015-.086.043-.075.067-.056.1-.049h-3.549l-.068.013h.086l.082.03.067.055.043.075.015.086-.015.086-.043.075-.067.056-.082.03h-.086l-.082-.03-.067-.056-.043-.075-.015-.086.015-.086.043-.075.067-.056.1-.042h-3.549l-.068.02h.086l.082.03.067.055.043.075.015.086-.015.086-.043.075-.067.056-.082.03h-.086l-.082-.03-.067-.056-.043-.075-.015-.086.015-.086.043-.075.067-.056.1-.049h-3.55" style="stroke-width:.1" />
      <path id="12222" class="room non-bookable" d="M20.896-26.49v.7h-6.441v1.895h3.252v-.01h.4l4.588-.076 13.301-.257h.006l17.884.34v.008h12.97v-1.9h-9.76v-1.2h-2.84v.2h-.2v-.2h-2.288v.2h-.2v-.2h-2.29v.2h-.2v-.2h-2.287v.2l-.004.314h-7.191v-.014h-7.2v-1.53h-4.55v1.53h-6.95" style="stroke-width:.1" />
      <path id="12212" class="room bookable" d="M39.668-23.821v9.276h14.218v-9.002l-14.218-.274" style="stroke-width:.1" />
      <path id="12245" class="room non-bookable" d="M69.096-30.29v4.5h-2.11v2.1h-.7v4.054h.7v.355L63.429-8.005h3.413l3.667-11.63h.012l.852-2.707 1.173.002v-2.446h-.333v-.15h.333v-4.854h5.165v-2.396h-8.615v1.896" style="stroke-width:.1" />
      <path id="12248" class="room bookable" d="M18.107-32.31H28.71v-9.2H18.106v9.2" style="stroke-width:.1" />
      <path id="12247" class="room bookable" d="M53.885-36.435v-5.075H43.28v9.2h10.604v-4.125" style="stroke-width:.1" />
      <path id="12200" class="room non-bookable" d="M14.756-23.765H9.043v4.13h.083l2.627-.013.015.065.041.052.06.03h.067l.06-.03.042-.052.015-.065-.015-.065-.041-.052-.06-.03h-.067l-.06.03-.042.052-.015.065-2.627.012v8.857h5.63v-12.986" style="stroke-width:.1" />
      <path id="12217" class="room non-bookable" d="M43.136-32.31v-9.2h-7.08v9.32h3.521l-.1.05.082-.03.068-.02h3.509v-.12" style="stroke-width:.1" />
      <path id="12246" class="room bookable" d="M28.856-41.51v9.2h7.055v-9.2h-7.055" style="stroke-width:.1" />
      <path id="12211" class="room bookable" d="M32.468-23.82v9.275h6.8v-9.284l-3.271-.059-3.529.068" style="stroke-width:.1" />
      <path id="12207" class="room bookable" d="M25.268-23.68v9.135h6.8v-9.267l-6.8.131" style="stroke-width:.1" />
      <path id="12214" class="room non-bookable" d="M14.856-23.805V-2.19h2.85v-21.615h-2.85" style="stroke-width:.1" />
      <path id="12201" class="room non-bookable" d="M14.756-10.68h-5.63v8.49h5.63v-8.49" style="stroke-width:.1" />
      <path id="12213" class="room non-bookable" d="M18.107-14.545h7.016v-9.133l-2.422.047-.958.016v5.306h-3.636v3.764" style="stroke-width:.1" />
      <path id="12223" class="room non-bookable" d="M46.79-29.09h-.2v-.2h.2l-.003-.3H34.296v3.1h5.3v.014h7.191l.004-.314h-.2v-.2h.2v-2.1" style="stroke-width:.1" />
      <path id="12234" class="room non-bookable" d="M72.85-36.435v4.05h1.9v-16.2h-1.888l-.02 11.7h.009v.45" style="stroke-width:.1" />
      <path id="12254" class="room non-bookable" d="M17.937-32.32v-4.115h-5.821v4.115h5.82" style="stroke-width:.1" />
      <path id="12238" class="room non-bookable" d="m5.699-23.618-2.548-.001v3.983h5.797v-4.13H6.056l-.066.003-.144.144h-.147" style="stroke-width:.1" />
      <path id="12196" class="room non-bookable" d="M74.346-19.636h3.365v-6.854h-3.365v6.854" style="stroke-width:.1" />
      <path id="12249" class="room non-bookable" d="m74.75-52.287-.76-.103-1.1-.08-1.538-.063-.848.001-1.092.046-.507.04-.01 3.761h5.856v-3.602" style="stroke-width:.1" />
      <path id="12251" class="room non-bookable" d="m21.598-23.613-3.491.059v5.1h3.49v-5.159" style="stroke-width:.1" />
      <path id="12255" class="room non-bookable" d="M9.076-30.199V-30h-.17v3.922h.2v.189h3.64v-4.28l-3.67-.029" style="stroke-width:.1" />
      <path id="12218" class="room non-bookable" d="M54.256-29.09H46.79v2.1h7.466v-2.1" style="stroke-width:.1" />
      <path id="12205" class="room non-bookable" d="M60.286-23.69v4.054h3.75v-4.054h-3.75" style="stroke-width:.1" />
      <path id="12235" class="room non-bookable" d="M77.71-29.59h-4.964v2.9h4.965v-2.9" style="stroke-width:.1" />
      <path id="12232" class="room non-bookable" d="M72.65-32.386v-4.049h-3.506v4.05h3.507" style="stroke-width:.1" />
      <path id="12204" class="room non-bookable" d="M56.636-23.69v4.054h3.5v-4.054h-3.5" style="stroke-width:.1" />
      <path id="12256" class="room non-bookable" d="M13.626-25.79H8.691v-.08h-.708l-1.952 1.952-.022.023h8.317l-.001-1.895h-.699" style="stroke-width:.1" />
      <path id="12233" class="room non-bookable" d="M70.783-19.636h3.413v-6.854h-1.45v4.3h-.2l-.958-.002-.805 2.556" style="stroke-width:.1" />
      <path id="12226" class="room non-bookable" d="M68.9-36.885h3.842l.006-3.45h-3.847v3.45" style="stroke-width:.1" />
      <path id="12236" class="room non-bookable" d="M15.056-30.2v4.32h2.88v-.69h.18v-1.67h-.18v-1.96h-2.88" style="stroke-width:.1" />
      <path id="12243" class="room non-bookable" d="M60.056-30.2v4.32h2.88v-4.32h-2.88" style="stroke-width:.1" />
      <path id="12220" class="room non-bookable" d="M59.946-32.286v-4.149h-2.9v4.15h2.9" style="stroke-width:.1" />
      <path id="12216" class="room non-bookable" d="M77.71-36.435h-2.76v4.05h2.76v-4.05" style="stroke-width:.1" />
      <path id="12250" class="room non-bookable" d="m67.63-52.333-1.16.137-.57.093v3.418h2.896l.009-3.753-1.175.105" style="stroke-width:.1" />
      <path id="12227" class="room non-bookable" d="M72.762-48.585h-3.861v2.65h3.857l.004-2.65" style="stroke-width:.1" />
      <path id="12229" class="room non-bookable" d="M68.9-43.085v2.65h3.848l.005-2.65H68.9" style="stroke-width:.1" />
      <path id="12253" class="room non-bookable" d="M24.496-29.49v2.9h3.25v-2.9h-3.25" style="stroke-width:.1" />
      <path id="12202" class="room non-bookable" d="M54.286-19.636h2.25v-4.054h-2.25v4.054" style="stroke-width:.1" />
      <path id="12206" class="room non-bookable" d="M64.136-23.69v4.054h1.95v-4.054h-1.95" style="stroke-width:.1" />
      <path id="12219" class="room non-bookable" d="M67.344-32.286v-4.149h-1.86v4.15h1.86" style="stroke-width:.1" />
      <path id="12239" class="room non-bookable" d="M68.896-28.14v-1.97h-3.65v1.97h3.65" style="stroke-width:.1" />
      <path id="12240" class="room non-bookable" d="M68.896-27.94h-3.65v1.97h3.65v-1.97" style="stroke-width:.1" />
      <path id="12242" class="room non-bookable" d="m63.205-25.98.156-.026.209-.047.218-.074.173-.081.163-.1.155-.113.158-.137.139-.145.158-.212.15-.284.058-.144.057-.18.037-.187.026-.225-.002-.198-.012-.177-.033-.176-.039-.146-.052-.151-.082-.184-.083-.153-.174-.241-.104-.114-.123-.117-.12-.1-.282-.181-.263-.116-.161-.05-.299-.055-.297-.015v4.138l.269-.009" style="stroke-width:.1" />
      <path id="12237" class="room non-bookable" d="m14.277-29.981-.3.143-.129.081-.141.103-.12.102-.2.214-.184.263-.072.137-.115.306-.043.173-.022.126-.025.293.007.152.048.31.042.161.051.14.129.272.148.22.181.209.204.178.295.19.181.085.314.099.261.044.269.009v-4.138l-.332.017-.157.032-.29.079" style="stroke-width:.1" />
      <path id="12199" class="room non-bookable" d="M54.055-36.435v2.4h1.09v-.6h1.801v-1.8h-2.891" style="stroke-width:.1" />
      <path id="12258" class="room non-bookable" d="M62.635-32.26v-2.099h-2.59v2.098h2.59" style="stroke-width:.1" />
      <path id="12230" class="room non-bookable" d="M70.75-43.185h2.003l.004-2.65h-2.006v2.65" style="stroke-width:.1" />
      <path id="12195" class="room non-bookable" d="M64.785-36.435h-2.05v2.581h2.05v-2.58" style="stroke-width:.1" />
      <path id="12244" class="room non-bookable" d="M56.946-32.386v-1.549h-2.891v1.55h2.891" style="stroke-width:.1" />
      <path id="12241" class="room non-bookable" d="M59.876-27.84v-1.67h-2.6v1.67h2.6" style="stroke-width:.1" />
      <path id="12209" class="room non-bookable" d="M20.716-26.57v-1.67h-2.55v1.67h2.55" style="stroke-width:.1" />
      <path id="12259" class="room non-bookable" d="M65.385-32.26v-1.494h-2.65v1.493h2.65" style="stroke-width:.1" />
      <path id="12257" class="room non-bookable" d="M62.635-34.459v-1.176h-2.59v1.176h2.59" style="stroke-width:.1" />
      <path id="12252" class="room non-bookable" d="M32.496-28.02h1.7v-1.47h-1.7v1.47" style="stroke-width:.1" />
      <path id="12228" class="room non-bookable" d="M68.9-45.835v1.275h1.65v-1.275H68.9" style="stroke-width:.1" />
      <path id="12231" class="room non-bookable" d="M68.9-44.46v1.275h1.65v-1.275H68.9" style="stroke-width:.1" />
      <path id="12197" class="room non-bookable" d="M68.944-35.085v-1.35h-1.5v1.35h1.5" style="stroke-width:.1" />
      <path id="12198" class="room non-bookable" d="M68.944-33.685v-1.3h-1.5v1.3h1.5" style="stroke-width:.1" />
      <path id="12224" class="room non-bookable" d="M23.096-26.59h1.3v-1.402h-1.3v1.402" style="stroke-width:.1" />
      <path id="12225" class="room non-bookable" d="M24.396-28.092v-1.398h-1.3v1.398h1.3" style="stroke-width:.1" />
      <path id="12215" class="room non-bookable" d="M68.944-33.585h-1.5v1.2h1.5v-1.2" style="stroke-width:.1" />
      <path id="12210" class="room non-bookable" d="M20.716-25.89v-.5h-2.6v.5h2.6" style="stroke-width:.1" />
      <path id="12208" class="room non-bookable" d="M21.296-27.59h-.4v1h.4v-1" style="stroke-width:.1" />
    </g>
    <g id="floorGraphicsGroup">
      <path d="M56.946-34.035v-.5h-1.7v.5h1.7m5.689-1.7v-.7h-2.59v.7h2.59m2.75 1.881v-2.58h-.5v2.58h.5m-.6-2.581h-2.05v2.581h2.05v-2.58m9.561 16.798h3.365v-6.854h-3.365v6.854m-5.402-15.449v-1.35h-1.5v1.35h1.5m0 1.4v-1.3h-1.5v1.3h1.5" style="stroke-width:.1" class="nonroom" />
      <path d="M23.096-26.59h1.3v-1.402h-1.3v1.402m1.3-1.502v-1.398h-1.3v1.398h1.3M68.9-36.885h3.842l.006-3.45h-3.847v3.45m3.861-11.7h-3.861v2.65h3.857l.004-2.65m-3.862 2.75v1.275h1.65v-1.275H68.9m0 2.75v2.65h3.848l.005-2.65H68.9m1.85-.1h2.003l.004-2.65h-2.006v2.65M68.9-44.46v1.275h1.65v-1.275H68.9m3.75 12.074v-4.049h-3.506v4.05h3.507m-1.868 12.749h3.413v-6.854h-1.45v4.3h-.2 0l-.958-.002-.805 2.556m2.067-16.799v4.05h1.9v-4.05h0v-.37h0v-11.78h-1.888l-.02 11.7h.009v.45m4.859 6.845h-4.964v2.9h4.965v-2.9m-64.101 3.7-.084-.5h-.6v.5h.683m-.683-4.3v.5h.6l.083-.5h-.683m2.13-.01v.091l-.332.017-.157.032-.29.079-.3.143-.129.081-.141.103-.12.102-.2.214-.184.263-.072.137-.115.306-.043.173-.022.126-.025.293.007.152.048.31.042.161.051.14.129.272.148.22.181.209.204.178.295.19.181.085.314.099.261.044.269.009v.091h2.88v-.69h.18v-1.67h-.18v-1.96h-2.88m-9.357 6.582-2.548-.001v3.983h5.797v-4.13H6.056v.003H5.99l-.144.144h-.147m59.367-2.271v-.5h-.6l-.083.5h.683m-.683-4.3.083.5h.6v-.5h-.683m4.513 2.05v-1.97h-3.65v1.97h3.65m0 .2h-3.65v1.97h3.65v-1.97m-9.02 1.97v-1.69h-2.6v1.69h2.6m0-1.87v-1.67h-2.6v1.67h2.6m-2.6-2.35v.5h2.6v-.5h-2.6m2.78-.01v4.32h2.88v-.091l.269-.009.156-.026.209-.047.218-.074.173-.081.163-.1.155-.113.158-.137.139-.145.158-.212.15-.284.058-.144.057-.18.037-.187.026-.225-.002-.198-.012-.177-.033-.176-.039-.146-.052-.151-.082-.184-.083-.153-.174-.241-.104-.114-.123-.117-.12-.1-.282-.181-.263-.116-.161-.05-.299-.055-.297-.015v-.091h-2.88m-3.11-2.186v-1.549h-2.891v1.55h2.891" style="stroke-width:.1" class="nonroom" />
      <path d="m68.785-52.437-.102.008-1.053.096h.008l-1.173.138.012-.002-.578.094h.004-.002v3.418h2.895l.009-3.753-.02.001M21.598-23.613l-3.491.059v5.1h3.49v-5.159m12.599-4.307h-1.7v1.33h1.7v-1.33m-1.7-.1h1.7v-1.47h-1.7v1.47m-8-1.47v2.9h3.25v-2.9h-2.2 0-1.05m-6.559-2.83v-4.115h-5.821v4.115h5.82m-8.86 2.121V-30h-.17v3.922h.2v.189h3.64v-4.28l-3.67-.029m4.55 4.408h0-.7 0-.18 0-3.64 0-.415v-.08h-.708l-1.952 1.952h0l-.022.023h8.317l-.001-1.895h-.699m49.009-8.669v-1.176h-2.59v1.176h2.59m0 2.199v-.126h0v-1.973h-2.59v.994h0v1.104h2.59m2.75.001v-1.105h0v-.389h-2.65v1.368h0v.125h2.65M28.856-41.51h-.145v8.043h.145v-8.043m0 9.2v-.157h-.145v.157m-.001-.157v-.04h.146v.04h-.145m-.001-1v.04h.146v-.04h-.145m-.001.96h-.92m0 0 .015-.16.041-.154.068-.146.092-.131.113-.114.132-.092.145-.067.155-.042.16-.014M43.28-32.31v-9.2h-.144v9.2m10.749 0h0v.121h.17m-1.17-.001v.001-.12h0-5.017v-.002.121h5.017m-6.017 0h0v-.12h0-.145v.121h.145m-1.145-.001v.001-.12h0-.515v.12h.515m-2.587-.121h0v.12h1.072v-.12h-.927m9.604.12h.04v-.12h-.04v.12m1 0h-.04v-.12h.04v.12m-.96 0h.92m-.92-.06h.92m-.92-.06h.92" style="stroke-width:.1" class="nonroom" />
      <path d="M47.868-32.31h-.04v.12h.04v-.12m-1 0h.04v.12h-.04v-.12m.96 0h-.92m.92.06h-.92m.92.06h-.92m-1.185 0h.04v-.12h-.04v.12m1 0h-.04v-.12h.04v.12m-.96 0h.92m-.92-.06h.92m-.92-.06h.92m-1.475.12h-.04v-.12h.04v.12m-1 0h.04v-.12h-.04v.12m.96 0v.92m0 0-.16-.014-.155-.041-.145-.068-.131-.092-.114-.113-.092-.132-.068-.145-.041-.155-.014-.16m-8.192-.12v-9.2h-.145v9.2m-18.204 8.505v10.325h.4v-4.829m0-5.596h0-.4v.01m.4 5.441v-5.1m0 14.574h-.4v6.79l.4.4v-7.19m-.1 0v-.04h-.1v.04h.1m0-4.5v.04h-.1v-.04h.1m0 4.46v-1.075m-.05 1.075v-1.075m-.05 1.075v-1.075m.1 0v-.04h-.1v.04h.1m0-.04v-1.075m-.05 1.075v-1.075m-.05 1.075v-1.075m.1 0v-.04h-.1v.04h.1m0-.04v-1.075m-.05 1.075v-1.075m-.05 1.075v-1.075m.1 0v-.04h-.1v.04h.1m0-.04v-1.075m-.05 1.075v-1.075m-.05 1.075v-1.075m35.978-28.07v5.075h.4m0-.355v-5.16M11.76-36.79v4.34m0 .18v.08h.356v-4.245m0 0h.603l.025-.175v-.18h-.983m.983 0h1.5m-1.524.355h1.548m-.024-.355v.18l.024.175h1.442l.024-.175v-.18h-1.49m1.49 0h1.5m-1.524.355h1.549m.447-.355h-.472v.18l.025.175h.847" style="stroke-width:.1" class="nonroom" />
      <path d="M14.244-36.71h-.04v.1h.04v-.1m-1.5 0h.04v.1h-.04v-.1m1.46 0h-.92m.92.05h-.92m.92.05h-.92m0-.1h-.04v.1h.04v-.1m-.04 0h-.46m.46.05h-.46m.46.05h-.46m4.45-.1h-.04v.1h.04v-.1m-1.5 0h.04v.1h-.04v-.1m1.46 0h-.92m.92.05h-.92m.92.05h-.92m0-.1h-.04v.1h.04v-.1m-.04 0h-.46m.46.05h-.46m.46.05h-.46M3.15-19.636v-3.983m-.45-.355v4.693m.45-4.339 2.549.002v-.355l-2.998-.001M77.71-36.435v16.8m.45.339v-17.509m-18.214.37v.86h.1v-.06m0-.1v-.7m0 3.07h0v-.994m0-.1v-.216h-.1v1.31h0m0-2.21v.04h.1v-.04h-.1" style="stroke-width:.1" class="nonroom" />
      <path d="M59.946-34.675v-.04h.1v.04h-.1m0-.86h-.82m0 0 .012.143.037.138.06.13.083.116.1.101.118.082.13.06.137.038.143.012m5.439.961v.389h0m.1 0h0v-3.07m-.1 0v2.581M8.948-23.765v1.255h.095v-1.255m0 2.455h-.095v1.674h.095v-1.674m0-1.2v.04h-.095v-.04h.095m0 1.2v-.04h-.095v.04h.095m0-1.16h1.12m0 0-.013.175-.041.171-.068.162-.092.15-.114.134-.133.114-.15.092-.163.067-.17.041-.176.014m3.073-10.97v.13h0v.001h0v-.13m.44-.001v.131h0v-.13m1.49-.001v.131-.001h.026v-.13h-.026m.926 0v.13h1.135v-.13h-1.135m2.965 0h0v.13h0m-5.821 0h.04v-.13h-.04v.13m.44 0h-.04v-.13h.04v.13m-.4 0h.36m-.36-.065h.36m-.36-.065h.36m.04.13h.04v-.13h-.04v.13m1.49 0h-.04v-.13h.04v.13m-1.45 0h1.41m-1.41-.065h1.41m-1.41-.065h1.41m.966 0h-.04v.13h.04v-.13m-.9 0h.04v.13h-.04v-.13m.86 0v-.82m0 0-.142.013-.139.037-.129.06-.117.082-.101.101-.082.117-.06.13-.038.138-.012.142m1.995.13h.04v-.13h-.04v.13m1.83 0h-.04v-.13h.04v.13m-1.79 0h1.75m-1.75-.065h1.75m-1.75-.065h1.75m60.263-4.485h-3.41v.37h2.96M57.276-25.97v-1.69m0-2.63h0-.18v4.5h.18m0-2.05v-1.67m0-.18v-.5m-2.991-6.245h.526l.025-.175v-.18h-.551m.551 0h1.5m-1.525.355h1.55m-.025-.355v.18l.024.175h.909l-.55-.355h-.383m0 .08h-.04v.1h.04v-.1m-1.5 0h.04v.1h-.04v-.1m1.46 0h-.92m.92.05h-.92m.92.05h-.92m0-.1h-.04v.1h.04v-.1m-.04 0h-.46m.46.05h-.46m.46.05h-.46m2.393.175h1.337v-.45h-1.337m2.777.45h2.589m6.165-.45h-8.994v.45h.14m2.789 0h2.05m.1 0h.5m.1 0h1.859m.1 0h1.5m.2 0h3.507m.199 0h0v-.45h-.008m-.1 0h-3.841m-9.095.45h-.04v-.45h.04v.45m-1.2 0h.04v-.45h-.04v.45m1.16 0v1.12" style="stroke-width:.1" class="nonroom" />
      <path d="m59.766-35.315-.175-.014-.171-.04-.163-.068-.15-.092-.133-.114-.114-.133-.092-.15-.067-.163-.041-.17-.014-.176M2.7-19.28h1.046v-.356H3.15" style="stroke-width:.1" class="nonroom" />
      <path d="M3.746-19.28v-.356h1.5v.356h-1.5m1.5-.356v.356h1.5v-.355h-1.5m1.5.355v-.356h1.5v.356h-1.5" style="stroke-width:.1" class="nonroom" />
      <path d="M9.126-19.636h-.88v.356h.605m-3.605-.076v-.1h-1.5v.1h1.5" style="stroke-width:.1" class="nonroom" />
      <path d="M5.246-19.456h-.04v.1h.04v-.1m-1.5 0h.04v.1h-.04v-.1m1.46 0h-.897m.897.05h-.897m.897.05h-.897m0-.1h-.04v.1h.04v-.1m-.04 0h-.483m.483.05h-.483m.483.05h-.483m4.46 0v-.1h-1.5v.1h1.5" style="stroke-width:.1" class="nonroom" />
      <path d="M8.246-19.456h-.04v.1h.04v-.1m-1.5 0h.04v.1h-.04v-.1m1.46 0h-.897m.897.05h-.897m.897.05h-.897m0-.1h-.04v.1h.04v-.1m-.04 0h-.483m.483.05h-.483m.483.05h-.483M18.107-32.31v-4.125h-.17v4.115m0 .13h.17m35.948 0v-.096m0-1.749v-2.4h-.17v4.125m.17-.076v-1.549M66.986-23.89v-.055h-.13v.055m0-1.9v.045h.13v-.045m0 1.845v-.04h-.13v.04h.13" style="stroke-width:.1" class="nonroom" />
      <path d="M66.986-25.745v.04h-.13v-.04h.13m0 1.76h.86m-.86-1.72h.86m0 1.72-.013-.15-.039-.144-.063-.136-.086-.123-.106-.106-.123-.086-.136-.063-.145-.039-.15-.013m.861-.86-.013.15-.039.144-.063.136-.086.123-.106.106-.123.086-.136.063-.145.04-.15.012M18.107-1.79l-.4-.4h-4.319v.4h4.719m-9.257 0h2.938v-.4H9.126m4.262 0h-.04v.4h.04v-.4m-1.6 0h.04v.4h-.04v-.4m2.968-8.59h-5.63v.1h5.63m42.29-25.755h-.1v.695h.1v-.695m-.1 1.9v.5m0 .1v.203h.1v-1.108h-.1v.205m.1 2.349v-.546h-.1v.446m.1-2.454v-.04h-.1v.04h.1m0-.9v.04h-.1v-.04h.1m0 .86h.82m0 0-.012-.142-.037-.138-.06-.13-.082-.117-.102-.1-.117-.083-.13-.06-.137-.037-.143-.013m0 2.868v-.04h-.1v.04h.1m0-.9v.04h-.1v-.04h.1m0 .86h.82m0 0-.012-.142-.037-.138-.06-.13-.082-.117-.102-.101-.117-.082-.13-.06-.137-.038-.143-.012m-2.991-.243h2.891m-1.8-.1h-1.091m2.891 0h-1.7m0 0v-.5m-.1-.1v.6m.1-.5h1.7m0-.1h-1.8m7.589 2.249h0v-.094h-.1v.094h0m0-1.973v.88h.1v-.275m0-.1v-2.58m-.1-.001v.7m0 .1v1.176" style="stroke-width:.1" class="nonroom" />
      <path d="M62.735-32.48v-.04h-.1v.04h.1m0-1v.04h-.1v-.04h.1m0 .96h.92m0 0-.014-.16-.042-.154-.067-.146-.092-.131-.114-.114-.131-.092-.145-.067-.155-.042-.16-.014m-.1-2.295h-2.59m.001.1h2.589m2.75 1.781h-.5m-.1 0h-.102v.1h.702m-2.65 0h.948v-.1h-.948" style="stroke-width:.1" class="nonroom" />
      <path d="M64.683-33.754h-.04v-.1h.04v.1m-1 0h.04v-.1h-.04v.1m.96 0v.92m0 0-.16-.014-.155-.041-.145-.068-.132-.092-.113-.113-.092-.132-.068-.145-.041-.155-.014-.16m1.062-2.681v2.581m.1 0v-2.58m1.837 17.154-3.57 11.325.277-.05 3.555-11.276m3.526-.355L66.841-8.005l.247.05 3.575-11.34m-.142-.341h-.012m.155.34h7.497m-.451-.34h-6.927" style="stroke-width:.1" class="nonroom" />
      <path d="m67.089-7.955-.247-.05H63.43l-.278.05h3.938m5.656-18.535h1.45m.15 0h3.365v-.2h-4.965m1.45 7.054h.15v-.387h-.15v.387m0-1.287h.15v-4.417h-.15v4.417m0-5.567v.15h.15v-.15m-.15 6.467v-.04h.15v.04h-.15" style="stroke-width:.1" class="nonroom" />
      <path d="M74.196-20.923v.04h.15v-.04h-.15m0 .86h-.82m0 0 .012-.142.037-.138.06-.13.083-.117.1-.101.118-.082.13-.06.137-.038.143-.012m0-5.457v.04h.15v-.04h-.15m0 1v-.04h.15v.04h-.15m0-.96h-.92m0 0 .014.16.041.155.068.145.092.132.113.113.132.092.145.068.155.041.16.014m-1.65.594v2.446m0 .15h.2v-3.15h-.2v.404m0-4.854v3.45h.2v-.15m0-.2v-2.9m-.2 3.25v.04h.2v-.04h-.2m0 1v-.04h.2v.04h-.2m0-.96h-.92m0 0 .014.16.041.155.068.145.092.132.113.113.132.092.145.068.155.041.16.014m5.164-4.21v-.2h-1.775v.2h1.776" style="stroke-width:.1" class="nonroom" />
      <path d="M72.746-29.59h1.889v-.2h-2.09m2.09 0h.04v.2h-.04v-.2m1.3 0h-.04v.2h.04v-.2m-1.26 0v-1.22m0 0 .174.013.17.037.163.06.153.084.139.104.123.123.104.14.084.152.06.164.038.17.012.173m1.815-2.396v-.2h-.96v.2h.96m-2.96-.2h-.05v.2h1.05v-.2h-.8m-2.3 0h-1.604v.2H72.9v-.2h-.05m-3.906.2h1.102v-.2h-.902m7.606.2h-.04v-.2h.04v.2m-1 0h.04v-.2h-.04v.2m.96 0v.92m0 0-.159-.014-.155-.041-.145-.068-.132-.092-.113-.113-.092-.132-.068-.145-.041-.155-.014-.16m-1.091-.2h-.04v.2h.04v-.2m-1.8 0h.04v.2h-.04v-.2m1.76 0v-.86m-1.72.86v-.86m1.72 0-.148.013-.145.04-.136.062-.123.086-.106.106-.086.123-.063.136-.04.145-.012.15m-.861-.861.15.013.145.04.136.062.123.086.106.106.086.123.063.136.039.145.013.15m-3.755.199h.04v-.2h-.04v.2m1 0h-.04v-.2h.04v.2m-.96 0v.92m0 0 .16-.014.155-.041.145-.068.131-.092.114-.113.092-.132.067-.145.042-.155.014-.16m-3.562-.2v-.106h-.1v.206m.1-1.399v-.062h-.1v.355h.1v-.193m0-1.5v-.261h-.1v.699h.1v-.338m-.1-1.45v.189h.1v-.189m-.1 3.043v.04h.1v-.04h-.1" style="stroke-width:.1" class="nonroom" />
      <path d="M67.344-32.492v-.04h.1v.04h-.1m0-.86h-.82m0 0 .012.143.037.138.06.13.083.116.1.101.118.082.13.06.138.038.142.012m0-2.115v.04h.1v-.04h-.1m0 .9v-.04h.1v.04h-.1m0-.86h-.82m0 0 .012.142.037.138.06.13.083.117.1.1.118.083.13.06.138.037.142.013m0-2.459v.04h.1v-.04h-.1m0 .9v-.04h.1v.04h-.1m0-.86h-.82m0 0 .012.142.037.138.06.13.083.117.1.101.118.082.13.06.138.037.142.013m1.8 3v-4.049m-.2 4.149v.1m0-4.249v1.35m0 .1v1.3m0 .1v1.2m0-2.7h-1.5m0 .1h1.5m3.706-1.45v4.05m.2-.001v-4.049m-3.906 2.75h-1.5m0 .1h1.5m6.006 1.199v-4.049h-.2v4.05m-5.784 2.095h-.07 0m0 .18v.48h.2v-.66h0m-.2 2.35v.451h.2v-1.14h-.2v.49m0 2.349h.2v-.699h-.2v.52m.2-3.661v.04h-.2v-.04h.2m0 1v-.04h-.2v.04h.2m0-.96h.92m0 0-.014.16-.042.155-.067.145-.092.132-.114.113-.131.092-.145.068-.155.041-.16.014m0 2.181v-.04h-.2v.04h.2m0-1v.04h-.2v-.04h.2m0 .96h.92m0 0-.014-.16-.042-.154-.067-.146-.092-.131-.114-.114-.131-.092-.145-.067-.155-.042-.16-.014m5.654-21.236h-.41v.1h.41m-1.888 0h.479v-.1h-4.445m-.1 0H65.9m-.15.1h3.05m.1 0h3.862" style="stroke-width:.1" class="nonroom" />
      <path d="M73.34-48.585h.04v-.1h-.04v.1m1 0h-.04v-.1h.04v.1m-.96 0v.92m0 0 .16-.014.155-.041.146-.068.13-.092.114-.113.092-.132.068-.145.042-.155.014-.16m-8.401-.1v-3.418m-.15.026v3.492m7.012 0-.002 1.15h.1l.002-1.15m-.105 2.75-.001.9h.1l.003-1.6h-.1l-.001.6m-.005 2.85-.001.6h.1l.002-1.55h-.1l-.001.85m-.005 2.85-.001.885h.1l.003-2.135h-.1l-.002 1.15m.094 3.55.003-1.665h-.1l-.003 1.665" style="stroke-width:.1" class="nonroom" />
      <path d="M72.759-46.535v-.04h.1v.04h-.1m.001-.9v.04h.1v-.04h-.1m-.001.86-.82-.001m0 0 .012-.143.038-.138.06-.129.082-.117.102-.1.117-.083.13-.06.138-.037.142-.012m.096 2.46v.04h-.1v-.04h.1m-.002.9v-.04h-.1v.04h.1m.002-.86.82.002m0 0-.013.142-.037.138-.06.13-.083.116-.101.101-.117.082-.13.06-.138.037-.143.012m-.102 1.59v.04h.1v-.04h-.1m-.002.9v-.04h.1v.04h-.1m.002-.86-.82-.001m0 0 .012.142.037.138.06.13.082.117.1.101.118.083.129.06.138.037.142.013m-.003 2.175v.04h.1v-.04h-.1m-.002.9v-.04h.1v.04h-.1m.002-.86-.82-.002m0 0 .012.143.037.138.06.13.082.117.1.101.117.082.13.06.138.038.142.013m.003-1.845h-3.847m-.001.1h3.848m-3.852-8.35v-.5h-.1v.5m.009-3.753-.006 2.353h.1l.006-2.361m-.108 3.261v-.04h.1v.04h-.1m.003-.9-.001.04h.1v-.04h-.1m-.002.86-.82-.002" style="stroke-width:.1" class="nonroom" />
      <path d="m67.977-49.227.013-.142.037-.138.06-.13.083-.117.101-.1.118-.082.13-.06.138-.037.142-.012M8.85-19.28v.01h.276v-.366m0 .366v2.4m-.276-2.4v2.4m.276 0H8.85v.28h.275v-.28m.001.28v2.7m-.276-2.7v2.7m.276 0H8.85v.3h.275v-.3m.001.3v2.7m-.276-2.7v2.7m.276 0H8.85v.3h.275v-.3m.001.3v2.7m-.276-2.7v2.7m.276 0H8.85v.302h.275v-.302m.001.302v2.7m-.276-2.7v2.7m.276 0H8.85v.298h.275v-.298m.001.298v2.4m-.276-2.4v2.4m.276 0h0-.275v.4m.001-17.48v.04h.1v-.04h-.1m0 2.4v-.04h.1v.04h-.1m0-2.36v.452m.05-.452v.452m.05-.452v.452m-.1 0v.04h.1v-.04h-.1m0 .04v1.828m.05-1.828v1.828m.05-1.828v1.828m-.1.32v.04h.1v-.04h-.1m0 2.7v-.04h.1v.04h-.1m0-2.66v2.126m.05-2.126v2.126m.05-2.126v2.126m-.1 0v.04h.1v-.04h-.1m0 .04v.454m.05-.454v.454m.05-.454v.454m-.1.34v.04h.1v-.04h-.1m0 2.7v-.04h.1v.04h-.1m0-2.66v2.126m.05-2.126v2.126m.05-2.126v2.126m-.1 0v.04h.1v-.04h-.1m0 .04v.454m.05-.454v.454m.05-.454v.454m-.1.34v.04h.1v-.04h-.1m0 2.7v-.04h.1v.04h-.1m0-2.66v2.126m.05-2.126v2.126m.05-2.126v2.126m-.1 0v.04h.1v-.04h-.1m0 .04v.454m.05-.454v.454m.05-.454v.454m-.1.342v.04h.1v-.04h-.1m0 2.7v-.04h.1v.04h-.1m0-2.66v2.126m.05-2.126v2.126m.05-2.126v2.126m-.1 0v.04h.1v-.04h-.1m0 .04v.454m.05-.454v.454m.05-.454v.454m-.1.338v.04h.1v-.04h-.1m0 2.4v-.04h.1v.04h-.1m0-2.36v1.829m.05-1.829v1.829m.05-1.829v1.829m-.1 0v.04h.1v-.04h-.1m0 .04v.451m.05-.451v.451m.05-.451v.451M5.904-24.045l.127.127h0l-.128-.128.001.001m0 0 1.945-1.944m-1.818 2.071 1.945-1.944m-.067-.188-.06.06h-.001l.127.127h0l.008-.007" style="stroke-width:.1" class="nonroom" />
      <path d="m7.849-25.99-.029.029.128.127.028-.028-.127-.127m-1.945 1.944.028-.028.128.127-.029.028-.127-.127m1.916-1.916-1.888 1.888m1.952-1.825L5.996-24.01m1.952-1.824L6.06-23.946m1.923-1.924h.013v-.18h0-.087m.781 0h0v.18h.001v-.18m-.695.18h.04v-.18h-.04v.18m.694 0h-.04v-.18h.04v.18m-.654 0h.615m-.615-.09h.615m-.615-.09h.615m.075-.029h.18-.18 0m0-3.92h.18v-.002h-.18m.18 3.922v-.04h-.18v.04h.18m0-3.92v.04h-.18v-.04h.18m0 3.88v-3.84m-.09 3.84v-3.84m-.09 3.84v-3.84m.178-.531.128.127.016-.016h0l-.128-.127h0l-.016.016m1.945-1.96-.062.063h0l.127.127h0l.01-.01m-1.876 1.89.028-.028-.128-.126-.028.028.128.127m1.866-1.881-.028.028-.128-.127.029-.028.127.127m-1.838 1.852 1.81-1.824M9.012-30.47l1.81-1.825m-1.874 1.761 1.81-1.825m.166.089h.012v-.18h0-.087m.911 0h0v.18h0m-.824 0h.04v-.18h-.04v.18m.824 0h-.04v-.18h.04v.18m-.784 0h.745m-.745-.09h.745m-.745-.09h.745m6.385-3.985v-5.075m-.4-.44v5.16m.4-4.72h.04v.001-.44h-.44m.44-.001h3.27m-3.27.44h3.27m0-.44v.441h.36v-.44h-.36m.36-.001h3.27m-3.27.44h3.27m0-.44v.441h.315v-.442.001h-.315m.314 0h3.27m-3.27.44h3.27m0-.44h0v.44h.33v.001-.44h-.33m.33-.001h3.27m-3.27.44h3.27m0-.44v.441h.346v-.44h-.345m.345-.001h3.27m-3.27.44h3.27m0-.44v.441h.33v-.44h-.33m.33-.001h3.27m-3.27.44h3.27m0-.44v.441h.33v-.44h-.33m.33-.001h3.27m-3.27.44h3.27m0-.44v.441h.33v-.44h-.33m.33-.001h3.27m-3.27.44h3.27m0-.44v.441h.33v-.44h-.33m.33-.001h3.27m-3.27.44h3.27m0-.44v.441h.33v-.44h-.33m.33-.001h3.27m-3.27.44h3.27m.439-.44h-.44v.441h.04m-35.739-.001h.04v-.44h-.04v.44m3.27 0h-.04v-.44h.04v.44m-3.23 0h3.19m-3.19-.22h3.19m-3.19-.22h3.19m.4.44h.04v-.44h-.04v.44m3.27 0h-.04v-.44h.04v.44m-3.23 0h3.19m-3.19-.22h3.19m-3.19-.22h3.19m3.624 0h-.04v.44h.04v-.44" style="stroke-width:.1" class="nonroom" />
      <path d="M25.36-41.95h.04v.44h-.04v-.44m3.23 0H25.4m3.19.22H25.4m3.19.22H25.4m3.56 0H29v-.44h-.04v.44m3.27 0h-.04v-.44h.04v.44m-3.23 0h3.19M29-41.73h3.19M29-41.95h3.19m.386.44h.04v-.44h-.04v.44m3.27 0h-.04v-.44h.04v.44m-3.23 0h3.19m-3.19-.22h3.19m-3.19-.22h3.19m.37.44h.04v-.44h-.04v.44m3.27 0h-.04v-.44h.04v.44m-3.23 0h3.19m-3.19-.22h3.19m-3.19-.22h3.19m.37.44h.04v-.44h-.04v.44m3.27 0h-.04v-.44h.04v.44m-3.23 0h3.19m-3.19-.22h3.19m-3.19-.22h3.19m.37.44h.04v-.44h-.04v.44m3.27 0h-.04v-.44h.04v.44m-3.23 0h3.19m-3.19-.22h3.19m-3.19-.22h3.19m.37.44h.04v-.44h-.04v.44m3.27 0h-.04v-.44h.04v.44m-3.23 0h3.19m-3.19-.22h3.19m-3.19-.22h3.19m.37.44h.04v-.44h-.04v.44m3.27 0h-.04v-.44h.04v.44m-3.23 0h3.19m-3.19-.22h3.19m-3.19-.22h3.19m-39.05 18.185v1.167h.1v-1.297m-.1 13.215v4.895h.1v-15.613h-.1v10.619m.1 6.494h-.1v2.095h.1v-2.095m0-17.113v-.04h-.1v.04h.1m0-1.2v.04h-.1v-.04h.1m0 1.16h1.12m0 0-.014-.175-.041-.171-.067-.162-.092-.15-.114-.134-.134-.114-.15-.092-.162-.067-.17-.041-.176-.014m-.1 16.773v.04h.1v-.04h-.1m0 1.5v-.04h.1v.04h-.1m0-1.46h-.91m.91 1.42h-.51m-.4-1.42.014.158.04.153.068.144.09.13.113.112.13.091.144.067.153.041.158.014" style="stroke-width:.1" class="nonroom" />
      <path d="m14.246-4.325.013-.113.037-.108.061-.097.08-.08.098-.061.107-.038.114-.013m-8.7-19.06v.13h1.342v-.13H6.056m8.27 0H8.398v.13h.55m.095 0h5.713m.1-.13h-.4m-7.058 0h.04v.13h-.04v-.13m1 0h-.04v.13h.04v-.13m-.96 0v-.92m0 0 .16.014.155.041.145.068.131.092.114.113.092.132.068.145.041.155.014.16m51.778.205v4.054h.15v-4.054m5.8 0v4.054h.2v-4.054m-12 4.41h12.436m.262 0h.002v-.356h-12.7m9.75-4.054v.5h.1v-.5m0 1.5h-.1v2.554h.1v-2.554m-.1-1v.04h.1v-.04h-.1m0 1v-.04h.1v.04h-.1m0-.96h-.92m0 0 .014.16.041.155.068.145.092.132.113.113.132.092.145.068.155.041.16.014m-7.5-1.46h.1" style="stroke-width:.1" class="nonroom" />
      <path d="M56.636-22.79h-.1v3.154h.1v-3.154m0-.9v.04h-.1v-.04h.1m0 .9v-.04h-.1v.04h.1m0-.86h.82m0 0-.013.143-.037.138-.06.13-.082.116-.101.101-.117.082-.13.06-.138.038-.142.012m-2.35 8.7v-5.15m0-.356v-4.254h-.4v9.345m0 0h-4.18v.415h4.58m-5.379 0v-.415h-1v.415h1m-1.8 0v-.415h-1v.415h1m-1.8 0v-.415h-1v.415h1m-1.8 0v-.415h-1v.415h1m-1.8 0v-.415h-1.003v.415h1.003m-1.803 0v-.415h-.993v.415h.993m-1.794 0v-.415h-1v.415h1m-1.8 0v-.415H35.3v.415h1.01m-1.81 0v-.415h-1v.415h1m-1.8 0v-.415h-.995v.415h.996m-1.796 0v-.415h-1.001v.415h1m-1.8 0v-.415h-.999v.415h.999m-1.799 0v-.415h-1.004v.415h1.004m-1.805 0v-.415h-.998v.415h.999m-1.799 0v-.415h-.995v.415h.995m-1.795 0v-.415h-.997v.415h.997m-1.797 0v-.415h-2.003v.415h2.003m28.797-.15h.04v-.1h-.04v.1" style="stroke-width:.1" class="nonroom" />
      <path d="M49.707-14.28h-.04v-.1h.04v.1m-.76 0h.72m-.72-.05h.72m-.72-.05h.72m-2.56.1h.04v-.1h-.04v.1m.8 0h-.04v-.1h.04v.1m-.76 0h.72m-.72-.05h.72m-.72-.05h.72m-2.56.1h.04v-.1h-.04v.1m.8 0h-.04v-.1h.04v.1m-.76 0h.72m-.72-.05h.72m-.72-.05h.72m-2.56.1h.04v-.1h-.04v.1m.8 0h-.04v-.1h.04v.1m-.76 0h.72m-.72-.05h.72m-.72-.05h.72m-2.56.1h.04v-.1h-.04v.1m.8 0h-.04v-.1h.04v.1m-.76 0h.72m-.72-.05h.72m-.72-.05h.72m-2.563.1h.04v-.1h-.04v.1m.8 0h-.04v-.1h.04v.1m-.76 0h.72m-.72-.05h.72m-.72-.05h.72m-2.554.1h.04v-.1h-.04v.1m.8 0h-.04v-.1h.04v.1m-.76 0h.72m-.72-.05h.72m-.72-.05h.72m-2.56.1h.04v-.1h-.04v.1m.8 0h-.04v-.1h.04v.1m-.76 0h.72m-.72-.05h.72m-.72-.05h.72m-2.57.1h.04v-.1h-.04v.1m.8 0h-.04v-.1h.04v.1m-.76 0h.72m-.72-.05h.72m-.72-.05h.72m-2.56.1h.04v-.1h-.04v.1m.8 0h-.04v-.1h.04v.1m-.76 0h.72m-.72-.05h.72m-.72-.05h.72m-2.555.1h.04v-.1h-.04v.1m.8 0h-.04v-.1h.04v.1m-.76 0h.72m-.72-.05h.72m-.72-.05h.72m-2.561.1h.04v-.1h-.04v.1m.8 0h-.04v-.1h.04v.1m-.76 0h.72m-.72-.05h.72m-.72-.05h.72m-2.559.1h.04v-.1h-.04v.1m.8 0h-.04v-.1h.04v.1m-.76 0h.72m-.72-.05h.72m-.72-.05h.72m-2.565.1h.04v-.1h-.04v.1m.8 0h-.04v-.1h.04v.1m-.76 0h.72m-.72-.05h.72m-.72-.05h.72m-2.558.1h.04v-.1h-.04v.1m.8 0h-.04v-.1h.04v.1m-.76 0h.72m-.72-.05h.72m-.72-.05h.72m-2.555.1h.04v-.1h-.04v.1m.8 0h-.04v-.1h.04v.1m-.76 0h.72m-.72-.05h.72m-.72-.05h.72m-2.557.1h.04v-.1h-.04v.1m.8 0h-.04v-.1h.04v.1m-.76 0h.72m-.72-.05h.72m-.72-.05h.72m4.253-9.298v9.133h.145v-9.136m6.8-.131v9.267h.4v-9.275m6.8-.009v9.284h.4v-9.276m14.618-.069v.2h.93v-.2h-.93m2.35.2h3.5m.15 0h1.125v-.2h-5.296v.2h.42m7.601 0h1.95m.77-.2H62.91v.2h1.125m2.251 0h.7v-.2h0" style="stroke-width:.1" class="nonroom" />
      <path d="M55.215-23.69h.04v-.2h-.04v.2m.9 0h-.04v-.2h.04v.2m-.86 0v.82m0 0 .143-.012.138-.037.13-.06.117-.083.1-.1.083-.118.06-.13.037-.137.012-.143m6.835-.2h-.04v.2h.04v-.2m-1.5 0h.04v.2h-.04v-.2m1.46 0v-.91m-1.42.91v-.51m1.42-.4-.157.014-.153.041-.144.067-.13.091-.112.112-.091.13-.067.144-.041.153-.014.158m-.511-.51.114.013.108.038.097.06.08.081.061.097.038.108.013.113m-40.218.275.958-.016h0m-.006-.35h0l-4.588.076m0 .351 3.49-.059m1.103-.018h.001l-.007-.35h0m2.574.301 1-.02-.006-.35-2.138.041.007.35.992-.02M36-24.238h0l-8.309.16.007.35 4.37-.084m.4-.008L36-23.888h0m-13.299.257.04-.001-.007-.35h-.04l.007.35m1.429-.027h-.04l-.006-.35h.04l.007.35m-1.39.027.009.435m1.34-.461.019.915m-1.359-.454.096-.013.091-.034.082-.053.067-.07.05-.084.031-.093.01-.097" style="stroke-width:.1" class="nonroom" />
      <path d="m24.109-22.743-.16-.011-.154-.039-.146-.064-.133-.09-.115-.11-.094-.129-.07-.143-.044-.153-.017-.159m3.092-.059h.04l-.006-.35h-.04l.006.35m1.43-.028-.04.001-.007-.35h.04l.007.35m-1.39.027.018.914m1.332-.941.008.435m-1.34.506.159-.017.153-.044.143-.07.129-.094.11-.115.09-.133.064-.146.038-.154.011-.16m.443.427-.097-.009-.092-.03-.084-.05-.07-.068-.053-.082-.034-.091-.013-.097M36-23.888h0l1.088.02.006-.35-1.095-.02h0m3.669.417 1.24.027.007-.35-2.39-.047-.007.35.75.012m2.846-.292-.006.35 11.778.224v-.35l-11.772-.224m-5.026.253h.04l.006-.35h-.04l-.006.35" style="stroke-width:.1" class="nonroom" />
      <path d="m38.518-23.84-.04-.002.006-.35.04.001-.006.35m-1.39-.026-.008.435m1.358-.41-.018.915m-1.34-.505.097-.01.092-.03.084-.05.07-.068.053-.081.034-.091.013-.097m.897.932-.158-.017-.154-.044-.143-.07-.129-.094-.11-.115-.09-.132-.064-.146-.038-.155-.011-.16m4.551-.261-.04-.001-.006.35h.04l.006-.35m-1.199-.022h.04l-.007.35h-.04l.007-.35m1.159.022.022-1.12m0 0-.176.01-.171.038-.164.065-.151.088-.136.112-.117.131-.095.149-.07.16-.044.17-.017.176M18.116-28.42v-1.69m-.18-.18v2.05m.18-1.87h2.6m.18-.18h-2.96m2.78 4.4h-.01v.1h.19m-2.96 0h.18v-.1h0m0 .1h.04v-.1h-.04v.1m2.59 0h-.04v-.1h.04v.1m-2.55 0v1.255m2.51-1.255v1.255m-2.51 0 .178-.013.175-.038.168-.062.157-.086.144-.107.126-.127.108-.143.085-.157.063-.168.038-.175.013-.179" style="stroke-width:.1" class="nonroom" />
      <path d="m20.666-24.535-.179-.013-.175-.038-.167-.062-.158-.086-.143-.107-.127-.127-.107-.143-.086-.157-.062-.168-.038-.175-.013-.179m1.485-1.85v-.6m-.18 1.85v.5m.18.1v-.7m0-.1v-1m-.18-.65v1.67m-2.6 0h-.18m.18.18h2.6m0-.18h-2.55m2.73-1.67h0m-.18-.18h-2.6m-.18.18h.18m.05 0h2.55m0-1.87v1.69m.18-1.17v-.7m0 2.05v-1.25m0 0h.4m.1-.1h-.5m.4.1v1.85m.1.05v-2m-.5 3.1h.5v-.1h0m-.1 0h-.4m.4-1.05h-.4m.5.05h0m-.5 0h.4m0 0v.005h.1v-.005m0 1v-.005h-.1v.005m.1-.005v-.04h-.1v.04h.1m0-.99v.04h-.1v-.04h.1m0 .95h.46m-.46-.91h.46m0 .91-.012-.102-.034-.097-.054-.088-.073-.072-.088-.055-.097-.034-.102-.012m-3.28-1.145v.29h.05v-.29m0 1.67v-.28h-.05v.28m0-.28v-.04h.05v.04h-.05m0-1.1v.04h.05v-.04h-.05m0 1.06h-1.02m0 0 .012-.16.038-.156.061-.147.084-.137.104-.122.121-.104.137-.083.148-.061.155-.038.16-.012m0 2.02v-.5m-.18-.18v.78m-3.08 1.985h0v-.091h0m2.851.001h-.001v.09h0m-2.37-.09h-.04v.09h.04v-.09m-.48 0h.04v.09h-.04v-.09m.44 0h-.4m.4.045h-.4m.4.045h-.4m.44 0h.04v-.13h-.04v.13m1.89 0h-.04v-.13h.04v.13m-1.85 0v.905m1.81-.905v.905m-1.81 0 .157-.014.152-.04.143-.067.13-.09.111-.112.09-.13.067-.143.041-.152.014-.157m.905.905-.157-.014-.153-.04-.143-.067-.129-.09-.111-.112-.09-.13-.068-.143-.04-.152-.014-.157m.945 0h.04v-.09h-.04v.09m.48 0h-.04v-.09h.04v.09m-.44 0h.4m-.4-.045h.4m-.4-.045h.4M56.72-47.876h0v11.086l.55.355h0m-.001-.45.002-10.991h0m11.673 15.49h-1.5m-.1.1h1.6M25.546-29.59h0-2.55m1.5.1h1.05m-2.45 0h1.3m0 2.9h-1.3m-.1.1h2.541m0-.1h0-1.041m-1.4 0v-.3h-.1v.4m.1-1.602v-.288h-.1v.69h.1v-.302m-.1-1.598v.41h.1v-.31" style="stroke-width:.1" class="nonroom" />
      <path d="M22.996-27.69v.04h.1v-.04h-.1m0 .8v-.04h.1v.04h-.1m0-.76h-.72m0 0 .014.14.04.136.067.124.09.11.109.089.124.066.135.041.14.014m.001-1.45v-.04h.1v.04h-.1m0-.8v.04h.1v-.04h-.1m0 .76h-.72m0 0 .014-.14.04-.135.067-.125.09-.109.109-.09.124-.066.135-.04.14-.015m1.401 1.148v1.402m.1 0v-2.9m-.1 0v1.398m0 0h-1.3m0 .1h1.3m-11.65 2.202v-.1h-.65v.1h.65m-1.55 0v-.1h-2.09v.1h2.09m.9-.1h-.04v.1h.04v-.1m-.9 0h.04v.1h-.04v-.1m.86 0v-.82m0 0-.143.012-.138.037-.13.06-.116.083-.101.1-.082.118-.06.13-.038.138-.012.142M74.75-51.329h0v2.644m0 .1v.913h.55v-3.657h0m0 5.657h-.55v8.867h.55v-8.867m0 0v-.04h-.55v.04h.55m0-2v.04h-.55v-.04h.55m-6.5-.913v11.7m.1-9.05v-2.65m0 11.7v-3.45m0-.1v-2.65m0-.1v-1.275m0-.1v-1.275m0 0h.34v-.1h-.34m3.858 0H70.14v.1h.41m.2 0h2.007m-3.517-.1h.04v.1h-.04v-.1m.9 0h-.04v.1h.04v-.1m-.86 0v-.82m0 0 .143.013.138.037.13.06.117.082.101.101.082.117.06.13.037.138.013.142m-1.201 2.85h.345v-.1h-.344m3.852 0H70.75m-.2 0h-.405v.1h2.608m-3.508 0h.04v-.1h-.04v.1m.9 0h-.04v-.1h.04v.1m-.86 0v.82m0 0 .142-.012.138-.037.13-.06.117-.083.101-.1.082-.118.06-.13.038-.137.012-.143m.445-1.375v1.275m.2 0v-2.65m-.2 0v1.275m-1.65.1h1.65m0-.1H68.9m1.883 24.924.805-2.556-.215-.15-.852 2.706" style="stroke-width:.1" class="nonroom" />
      <path d="m72.546-22.34-1.173-.002.215.15.958.002m0-2.746h-.333v.15h.333m-59.62-1.104v.1h.7l-.017-.1h-.683m0-4.4v.1h.683l.017-.1h-.7m2.13 0v.09h.015v.001h0v-.091h-.015m1.41 0v.09h.047v-.09h-.047m1.047 0v.09h.008v.001h0v-.09h-.008m.423-.001h-.015v.091h.015" style="stroke-width:.1" class="nonroom" />
      <path d="M15.07-30.2h.04v-.09h-.04v.09m.4 0h-.04v-.09h.04v.09m-.36 0h.32m-.32-.045h.32m-.32-.045h.32" style="stroke-width:.1" class="nonroom" />
      <path d="M15.466-30.29h.04v.09h-.04v-.09m1 0h-.04v.09h.04v-.09m-.96 0v-.92m0 0 .16.014.155.042.145.067.131.092.114.114.092.131.068.145.041.155.014.16m1.087.09h-.04v-.09h.04v.09m-1 0h.04v-.09h-.04v.09m.96 0v.92m0 0-.16-.014-.155-.041-.145-.068-.131-.092-.114-.113-.092-.132-.068-.145-.041-.155-.014-.16m.967 0h.04v-.09h-.04v.09m.4 0h-.04v-.09h.04v.09m-.36 0h.32m-.32-.045h.32m-.32-.045h.32m-2.824 4.41v.09h.012v.001h0v-.091h-.012m.412 0v.091h0v-.001h0v-.09m1 0v.09h.048v-.09h-.048m1.048 0v.09h.005v.001h0v-.09h-.005m.42-.001h-.015v.091h.015m-2.868-.001h.04v-.09h-.04v.09m.4 0h-.04v-.09h.04v.09m-.36 0h.32m-.32-.045h.32m-.32-.045h.32m.04.09h.04v-.09h-.04v.09m1 0h-.04v-.09h.04v.09m-.96 0v.92m0 0 .16-.014.155-.041.145-.068.131-.092.114-.114.092-.13.067-.146.042-.155.014-.16m1.088-.09h-.04v.09h.04v-.09m-1 0h.04v.09h-.04v-.09m.96 0v-.92m0 0-.16.014-.155.042-.145.067-.131.092-.114.114-.092.131-.068.145-.041.155-.014.16" style="stroke-width:.1" class="nonroom" />
      <path d="M17.52-25.79h.04v-.09h-.04v.09m.4 0h-.04v-.09h.04v.09m-.36 0h.32m-.32-.045h.32m-.32-.045h.32m47.186.09v-.1h-.683l-.017.1h.7m-.7-4.5.017.1h.683v-.1h-.7m4.53 0h-3.65v.18h3.65m0 1.97h-3.65v.2h3.65m0 1.97h-3.65v.18h1.61m.13 0h1.91m-8.84-.09v-2.26h-.18v.3m0 2.05h.18m-.18-1.87v1.69m.18-4.32h0-.18 0m0 .78v.37h.18v-1.06m-.18.01v.5m.18 1.55v-.04h-.18v.04h.18m0-1v.04h-.18v-.04h.18m-.18-.55h-2.6m0 .18h2.6m-2.6 3.72h.907v-.18h-.907m2.6 0h-.893v.18h.893m-.893 0h-.04v-.18h.04v.18" style="stroke-width:.1" class="nonroom" />
      <path d="M58.183-25.79h.04v-.18h-.04v.18m.76 0v.72m0 0-.14-.014-.135-.04-.125-.067-.109-.09-.09-.109-.066-.124-.04-.135-.015-.14m-.947-1.871h2.6m0-.18h-2.6m0-2.35h0v-.1h0m2.6 0h-.01v.1h.01m-.01-.1h-.04v.1h.04v-.1m-2.59 0h.04v.1h-.04v-.1m2.55 0v-1.255m-2.51 1.255v-1.255m2.51 0-.179.013-.175.038-.167.063-.158.085-.143.108-.127.126-.107.144-.086.157-.062.168-.038.175-.013.178m-1.255-1.255.178.013.175.038.168.063.157.085.144.108.126.126.108.144.085.157.063.168.038.175.013.178m1.485 4.5h.032v-.091h0v.001h-.032m1.412 0v.09h.068v-.09h-.068m1.448 0v.091h0v-.001h.02v-.09h-.02m-2.448 0h-.04v.09h.04v-.09m-.38 0h.04v.09h-.04v-.09m.34 0h-.3m.3.045h-.3m.3.045h-.3m.34-.09h.04v.09h-.04v-.09m1 0h-.04v.09h.04v-.09m-.96 0v-.92m0 0 .16.014.155.041.145.068.131.092.114.114.092.131.068.145.041.155.014.16m1.108.09h-.04v-.09h.04v.09m-1 0h.04v-.09h-.04v.09m.96 0v.92m0 0-.16-.014-.155-.041-.145-.068-.132-.092-.113-.114-.092-.131-.068-.145-.041-.155-.014-.16m.96 0h.04v-.09h-.04v.09m.38 0h-.04v-.09h.04v.09m-.34 0h.3m-.3-.045h.3m-.3-.045h.3m-2.82-4.32h.02v-.09h0-.02m.4 0h0v.09h0v-.09m1 0v.09h.08v-.09h-.08m1.08 0v.09h0v.001h0v-.091m.38 0v.091h0v-.001h.02v-.09h-.02m-2.46 0h-.04v.09h.04v-.09m-.38 0h.04v.09h-.04v-.09m.34 0h-.3m.3.045h-.3m.3.045h-.3m.34 0h.04v-.09h-.04v.09m1 0h-.04v-.09h.04v.09m-.96 0v.92m0 0 .16-.014.155-.041.145-.068.131-.092.114-.113.092-.132.067-.145.042-.155.014-.16m1.12-.09h-.04v.09h.04v-.09m-1 0h.04v.09h-.04v-.09m.96 0v-.92m0 0-.16.014-.155.042-.145.067-.132.092-.113.114-.092.131-.068.145-.041.155-.014.16m.96.09h.04v-.09h-.04v.09m.38 0h-.04v-.09h.04v.09m-.34 0h.3m-.3-.045h.3m-.3-.045h.3m-5.93-2.096h-2.891m0 .1h2.991m12.05 1.996h0-.13 0-.07m.07-1.896v.006h.13v-.006m0 1.896v-.04h-.13v.04h.13m0-1.89v.04h-.13v-.04h.13m0 1.85H70m-.904-1.81H70m0 1.81-.013-.157-.04-.153-.067-.142-.09-.13-.112-.111-.13-.09-.143-.067-.152-.041-.157-.014M70-32.14l-.013.157-.04.153-.067.142-.09.13-.112.111-.13.09-.143.067-.152.041-.157.014M57.27-47.876h0v-1.309m-.55-.342v1.65h0m.55-1.308 1.166-.575h0m-.232-.499h0l-1.483.732m1.715-.233h0l1.19-.525h0m-.212-.507h0l-1.21.533h0m1.422-.026h0l.845-.335h0m-.195-.514h0l-.862.342h0m1.056.172h0l.97-.347h0m-.177-.521h0l-.987.354h0m1.164.167h0l.876-.283h0m-.16-.526h0l-.893.288h0m1.053.238h0l.893-.257h0m-.141-.532h0l-.912.263h0m1.054.269h0l1.179-.288h0m-.125-.535h0l-1.196.291h0m1.321.244h0l.679-.152h0m-.112-.539h0l-.692.155h0m.804.384h0l.683-.13h0m-.099-.541h0l-.696.132h0m.944.383h0m-.09-.542h0l-.158.027h0m.098.541h0m.15-.026h0l.57-.093h0m-.076-.544h0l-.585.095h0m.661.449h0l1.164-.137h0m-.057-.547h0l-1.183.14h0m1.24.407h0l1.064-.097.087-.007m-.044-.548-.09.007-1.074.097h0m1.328.435.507-.04h0" style="stroke-width:.1" class="nonroom" />
      <path d="M69.379-53.035h0l-.727.057-.018.002m.049.547h.015l.107-.01m.607-.047h0l1.092-.046h0m-.012-.55h0l-1.113.047h0m1.125.503h.853m.01-.551h0l-.875.001h0m.865.549h0l.853.032h0m.023-.549h0l-.866-.033h0m.843.582h0l.684.031h0m.032-.55h0l-.693-.03h0m.661.58h0l1.096.08h0m.057-.547h0l-1.12-.082h0m1.063.629h0l.76.103m.55-.481-1.253-.17h0m.703.651v.958h0m.55-1.438v-.001m0 1.439h0v-.881m0 0 .789.122h0m.095-.542h0l-.883-.137m.788.679h0l.89.175h0m.114-.538h0l-.909-.179h0m.795.717h0l.843.19h0m.128-.535h0l-.857-.193h0m.729.728h0l.636.159h0m.142-.532h0l-.65-.162h0m.508.694h0l.825.233.15-.529-.833-.236h0M35.91-32.31h-.895v.12h1.04v-.12h0m-2.04.12v-.12h-.547v.121h.547m-1.547-.001v.001-.12h0-.185v-.002.121h.185m-3.758-.12h-.895v.12h3.468v-.12h0-2.427m-2.041.12v-.12h-.686v.121h.686m-1.536-.001v.001-.12h0-.196v-.002.121h.196m-1.196 0h0v-.12h0-4.976 0v.12h4.976m-5.976 0h0v-.12h0" style="stroke-width:.1" class="nonroom" />
      <path d="M35.015-32.19h-.04v-.12h.04v.12m-1 0h.04v-.12h-.04v.12m.96 0v.92m0 0-.16-.014-.154-.041-.146-.068-.13-.092-.114-.113-.092-.132-.068-.145-.042-.155-.014-.16m-1.587 0h.04v-.12h-.04v.12m1 0h-.04v-.12h.04v.12m-.96 0h.92m-.92-.06h.92m-.92-.06h.92m-1.145 0h-.04v.12h.04v-.12m-1 0h.04v.12h-.04v-.12m.96 0h-.92m.92.06h-.92m.92.06h-.92m-3.508 0h-.04v-.12h.04v.12m-1 0h.04v-.12h-.04v.12m.96 0v.92m0 0-.16-.014-.154-.041-.146-.068-.13-.092-.114-.113-.092-.132-.068-.145-.042-.155-.014-.16m-1.576 0h.04v-.12h-.04v.12m.85 0h-.04v-.12h.04v.12m-.81 0h.77m-.77-.06h.77m-.77-.06h.77m-1.006 0h-.04v.12h.04v-.12m-1 0h.04v.12h-.04v-.12m.96 0h-.92m.92.06h-.92m.92.06h-.92m-5.016-.12h-.04v.12h.04v-.12m-1 0h.04v.12h-.04v-.12m.96 0h-.92m.92.06h-.92m.92.06h-.92m3.451 13.736h-3.491m0 .145h3.636m-.145-5.304v2.482h.145v-2.484m0 5.306v-2.022h-.145v1.877" style="stroke-width:.1" class="nonroom" />
      <path d="M21.743-20.33v-.04h-.145v.04h.145m0-.8v.04h-.145v-.04h.145m0 .76h.72m0 0-.014-.141-.04-.135-.067-.125-.09-.109-.11-.09-.124-.066-.135-.04-.14-.015m12.453-5.499h-1.7m-.1.1h1.9m-1.8-.1v-1.33m-.1-.1v1.53m.1-1.43h1.7m-1.8-.1h0m1.9 0h0m-.1 0h-1.7m1.7.1v1.33m.1.1v-1.53m-1.8-1.47h.395v-.1h-.495m1.9 0h-.505v.1h.405m-.406-.1h-.04v.1h.04v-.1" style="stroke-width:.1" class="nonroom" />
      <path d="M32.89-29.59h.04v.1h-.04v-.1m.86 0v-.82m0 0-.142.013-.138.037-.13.06-.116.082-.101.101-.082.117-.06.13-.038.138-.012.142m1.265.1v1.47m.1 0v-1.57m-1.8 1.57v-1.47m-.1-.1v1.57m-4.65 1.43h-.609v.1h.709m-2.309 0h0v-.1h0m0 .1h.04v-.1h-.04v.1m1.6 0h-.04v-.1h.04v.1m-1.591-3h0v-.1h0m2.3 0h-.7v.1h.6m-2.2 0h.04v-.1h-.04v.1m1.6 0h-.04v-.1h.04v.1m.6 0v2.9m.1.1v-3.1m-15.1-.58v-.12l-3.67-.029v.12l3.67.029m1.709 4.38h-.13v.354h.13v-.354m.001 1.895v-.11h-.13v.11m.13-.111v-.04h-.13v.04h.13m-.001-1.43v.04h-.13v-.04h.13m.001 1.39h.46m-.461-1.35h.89m-.429 1.35-.012-.102-.034-.097-.055-.088-.073-.072-.087-.055-.097-.034-.102-.012m.889-.89-.013.154-.04.15-.066.141-.089.127-.11.11-.127.089-.14.066-.15.04-.154.013m45.59-7.754v-1.105h0m-.1 0h0v1.204m.1-2.198h2.589m0-.1h-2.59m2.59 2.073h0v.125m.1.001v-.126h0m0 .226h0m-.1-.1h-2.59m-.099.1h2.789m2.65-1.205h0v1.104m.1.101v-1.205h0m-.1 1.105h-.75v.1h.85m-2.75 0h.9v-.1h-.9m.9.1h.04v-.1h-.04v.1m1 0h-.04v-.1h.04v.1M46.59-29.09h.2v-.2h0-.2 0v.2m2.489 0h.2v-.2h0-.2 0v.2m2.489 0h.2v-.2h0-.2 0v.2m2.488 0h.2v-.2h0-.2 0v.2m0 2.3h.2v-.2h0-.2 0v.2m-2.488 0h.2v-.2h0-.2 0v.2m-2.489 0h.2v-.2h0-.2 0v.2m-2.489 0h.2v-.2h0-.2 0v.2m-34.537 7.142-.011-.057-.033-.05-.049-.032-.057-.011-.057.011-.05.033-.032.049-.011.057.011.057.033.05.049.032.057.011.057-.011.05-.033.032-.049.011-.057m-6.354-3.971h.147l.144-.144h.066v-.132h0-.047 0l.022-.023h0l-.127-.127h0l-.071.071h0-.134 0v.356m3.407-2.172h0v-.289h0-.38 0v.029h0-.035 0v.26h.415M8.726-30h.35v-.319h0l-.044-.044-.128-.127h0l-.101.1h0-.077 0v.39m4.02 4.21h.18v-.6h.6l.083.5.017.1h1.43v-.181h0l-.269-.009h0l-.261-.044h0l-.314-.1h0l-.181-.084h0l-.295-.19h0l-.204-.178h0l-.181-.208h0l-.148-.221h0l-.129-.272h0l-.051-.14h0l-.042-.162h0l-.048-.309h0l-.007-.152h0l.025-.293h0l.022-.126h0l.043-.173h0l.115-.306h0l.072-.137h0l.184-.263h0l.2-.214h0l.12-.102h0l.141-.103h0l.129-.081h0l.3-.143h0l.29-.079h0l.157-.032h0l.332-.017h0v-.181h0-1.43 0l-.017.1-.083.5h0-.6 0v-.6h0-.18 0v4.5m50.19 0h1.43l.017-.1.083-.5h.6v.6h.18v-4.5h0-.18 0v.6h0-.6 0l-.083-.5-.017-.1h0-1.43 0v.181h0l.297.015h0l.299.055h0l.161.05h0l.263.116h0l.282.181h0l.12.1h0l.123.117h0l.104.114h0l.174.241h0l.083.153h0l.082.184h0l.052.151h0l.039.146h0l.033.176h0l.012.177h0l.002.198h0l-.026.225h0l-.037.186h0l-.057.181h0l-.058.144h0l-.15.284h0l-.158.212h0l-.139.145h0l-.158.137h0l-.155.112h0l-.163.101h0l-.173.081h0l-.218.074h0l-.209.047h0l-.156.026h0l-.269.009h0v.181m-4.491-22.772-.012-.087-.034-.082-.053-.07-.07-.053-.082-.034-.087-.012-.087.012-.082.034-.07.053-.053.07-.034.082-.012.087.012.087.034.082.053.07.07.053.082.034.087.012.087-.012.082-.034.07-.053.053-.07.034-.082.012-.087m0 10.894-.012-.087-.034-.082-.053-.07-.07-.053-.082-.034-.087-.012-.087.012-.082.034-.07.053-.053.07-.034.082-.012.087.012.087.034.082.053.07.07.053.082.034.087.012.087-.012.082-.034.07-.053.053-.07.034-.082.012-.087m-36.6 5.744-.011-.074-.032-.067-.051-.054-.065-.038-.072-.016-.075.005-.069.027-.058.047-.042.062-.022.07v.075l.022.071.042.062.058.047.07.027.074.005.072-.016.065-.038.05-.054.033-.067.011-.074m3.61 0-.011-.074-.032-.067-.051-.054-.065-.038-.072-.016-.075.005-.069.027-.058.047-.042.062-.022.07v.075l.022.071.042.062.058.047.07.027.074.005.072-.016.065-.038.05-.054.033-.067.011-.074m3.59 0-.011-.074-.032-.067-.051-.054-.065-.038-.072-.016-.075.005-.069.027-.058.047-.042.062-.022.07v.075l.022.071.042.062.058.047.07.027.074.005.072-.016.065-.038.05-.054.033-.067.011-.074m3.608 0-.011-.074-.032-.067-.051-.054-.065-.038-.072-.016-.075.005-.069.027-.058.047-.042.062-.022.07v.075l.022.071.042.062.058.047.07.027.074.005.072-.016.065-.038.05-.054.033-.067.011-.074m3.593 0-.011-.074-.032-.067-.051-.054-.065-.038-.072-.016-.075.005-.069.027-.058.047-.042.062-.022.07v.075l.022.071.042.062.058.047.07.027.074.005.072-.016.065-.038.05-.054.033-.067.011-.074m3.606 0-.011-.074-.032-.067-.051-.054-.065-.038-.072-.016-.075.005-.069.027-.058.047-.042.062-.022.07v.075l.022.071.042.062.058.047.07.027.074.005.072-.016.065-.038.05-.054.033-.067.011-.074m3.6 0-.011-.074-.032-.067-.051-.054-.065-.038-.072-.016-.075.005-.069.027-.058.047-.042.062-.022.07v.075l.022.071.042.062.058.047.07.027.074.005.072-.016.065-.038.05-.054.033-.067.011-.074m3.599-.007-.011-.074-.032-.067-.051-.054-.065-.038-.072-.016-.075.005-.069.027-.058.047-.042.062-.022.07v.075l.022.071.042.062.058.047.07.027.074.005.072-.016.065-.038.05-.054.033-.067.011-.074m3.599.007-.011-.074-.032-.067-.051-.054-.065-.038-.072-.016-.075.005-.069.027-.058.047-.042.062-.022.07v.075l.022.071.042.062.058.047.07.027.074.005.072-.016.065-.038.05-.054.033-.067.011-.074m3.59.019-.011-.074-.032-.067-.051-.054-.065-.038-.072-.016-.075.005-.069.027-.058.047-.042.062-.022.07v.075l.022.071.042.062.058.047.07.027.074.005.072-.016.065-.038.05-.054.033-.067.011-.074" style="stroke-width:.1" class="nonroom" />
    </g>
    </g>
<style type="text/css">
  .room:hover {
    opacity: 0.7
  }
  .room {
    stroke-width: 0.1;
    stroke: #000;
  }
  .nonroom {
    stroke-width: 0.1;
    stroke: #000;
    fill: #f5f5f5;
  }
  .non-bookable {fill: #F0F0F0;}
  .bookable {fill: #0DE47E;}
  .booked {fill: #ED047E;}
</style></svg>