<svg xmlns="http://www.w3.org/2000/svg" id="Q-3" viewBox="0.783 -54.059 80.568 40.903">
  <style type="text/css">
  .room:hover {
    opacity: 0.7
  }
  .room {
    stroke-width: 0.1;
    stroke: #000;
  }
  .nonroom {
    stroke-width: 0.1;
    stroke: #000;
    fill: #f5f5f5;
  }
  .non-bookable {fill: #F0F0F0;}
  .bookable {fill: #0DE47E;}
  .booked {fill: #ED047E;}
</style>
  <g id="svgDrawingGroup">
    <g id="workspacesBackGroup">
      <path id="12296" class="room bookable" d="m74.75-52.288-1.415-.162-.435-.032-1.232-.044-.814-.01-.623.009-.48.015-.5.025-.5.032-.856.076-.965.116-.951.146-.938.176-.573.122-.457.106-.804.206-.893.257-.876.283-.525.184-.844.319-.51.202-.482.21-.63.311-1.176.556.589.393-.057.084-.03.096v.1l.03.096.057.084.078.062.094.037.1.008.098-.023.087-.05.069-.074.044-.09.014-.1-.014-.1-.044-.09-.069-.074-.087-.05-.098-.023-.1.008-.094.037-.078.062-.59-.393-.001 12.3.59-.553.08.062.093.037.1.008.098-.023.087-.05.069-.074.044-.09.014-.1-.014-.1-.044-.09-.069-.074-.087-.05-.098-.023-.1.008-.094.037-.078.062-.057.084-.03.096v.1l.03.096.057.084-.591.553h15.277v.09h2.205v-15.493" style="stroke-width:.1" />
      <path id="12294" class="room non-bookable" d="M66.246-32.286v1.996h2.6v.275h.3v-.275h-2.9v.18h-1v4.14h1v.18h2.9v-.275h-.3v.275h-2.6v6.45h1.203v-.1h.05v.1h1.15v-.1h.05v.1h1.15v-.1h.05v.1h1.15v-2.3h4.262v2.3h1.15v-.1h.05v.1h1.2v-17.095h-2.815v2.03l-.155 1.809v.49h.49v-.49h-.49l.155-1.81H72.4l.145 1.81h-.49v.49h.49v-.49l-.145-1.81v-2.029h-6.15l-.004 4.149" style="stroke-width:.1" />
      <path id="12303" class="room bookable" d="M46.555-24.08h-3.118l-.003.018-.043.075-.067.056-.082.03h-.086l-.082-.03-.067-.056-.043-.075-.003-.018h-3.127l-.003.018-.043.075-.067.056-.082.03h-.086l-.082-.03-.067-.056-.043-.075-.003-.018h-3.126l-.005.026-.043.075-.067.056-.082.03h-.086l-.082-.03-.067-.056-.043-.075-.005-.026h-3.12l-.005.025-.043.075-.067.056-.049.021v9.358h14.255v-9.332l-.045-.02-.067-.056-.043-.075-.013-.052" style="stroke-width:.1" />
      <path id="12309" class="room bookable" d="m21.359-24.09-3.252.306-.001 4.148v5.091h14.217V-23.9l-.056-.023-.067-.056-.043-.075v-.025h-3.124l-.005.026-.043.075-.067.056-.082.03h-.086l-.082-.03-.067-.056-.043-.075-.005-.026H25.46l-.005.03-.043.075-.067.056-.082.03h-.086l-.082-.03-.067-.056-.043-.075-.005-.031h-3.131l-.008.043-.043.076-.067.055-.081.03h-.087l-.082-.03-.066-.055-.044-.076-.012-.052" style="stroke-width:.1" />
      <path id="12304" class="room bookable" d="M50.64-31.995 53.76-32v-.026l.044-.075.067-.056.014-.007v-9.346H39.68v9.328l.038.017.067.056.043.075.006.034h3.12l.004-.027.043-.075.067-.056.082-.03h.086l.082.03.067.056.043.075.005.027h3.118l.008-.026.043-.075.067-.056.053-.023.016-.004.075-.005.054.01.052.022.067.056.043.075 3.122.027.007-.036.043-.075.067-.056.081-.03h.087l.082.03.066.056.044.075.01.04" style="stroke-width:.1" />
      <path id="12310" class="room bookable" d="m32.204-32.109.067-.056.052-.022v-9.323H18.106v9.19l3.245.32.004-.025.044-.075.066-.056.082-.03h.087l.081.03.067.056.043.075.004.02 3.136.004v-.033l.043-.075.067-.056.081-.03h.087l.082.03.066.056.044.075.008.029 3.1-.01.04-.063.066-.056.082-.03h.087l.081.03.067.056.019.033 3.197-.025.022-.039" style="stroke-width:.1" />
      <path id="12269" class="room non-bookable" d="m18.107-23.904 3.266-.308.042-.072.066-.056.082-.03h.087l.081.03.067.056.043.075.002.009h3.138l.004-.022.043-.075.067-.056.144-.031.024.002.082.03.067.055.043.075.004.022h3.095l.004-.026.043-.075.067-.056.082-.03h.086l.082.03.067.056.043.075.004.026h3.125v-.027l.043-.075.067-.056.082-.03h.086l.082.03.067.056.043.075.005.027h3.12l.005-.026.043-.075.067-.056.082-.03h.086l.082.03.067.056.043.075.004.026h3.124l.006-.034.043-.075.067-.056.082-.03h.086l.082.03.067.056.043.075.006.034h3.121l.006-.034.043-.075.067-.056.064-.025.08-.007.04.006.066.026.067.056.043.075.006.034h3.128l.043-.075.067-.056.044-.02.025-.007.075-.005.045.007.061.025.067.056.043.075 3.118-.004.004-.026.044-.075.066-.056.082-.03h.087l.081.03.067.056.043.075.01.032 3.113-.002.005-.028.043-.075.067-.056.082-.03h.086l.082.03.067.056.043.075.015.086-.015.086-.043.075-.067.056-.062.025v.137h5.82v-.127h.05v-1.9h-2.83v-.7h-24.7v-.1h-4.528v.1h-6.971v.7h-2.96v.095h-2.893v-.095H8.691v-.08h-.708l-1.952 1.952-.022.023h9.034v2.36h2.893l.001-2.37h.17" style="stroke-width:.1" />
      <path id="12275" class="room non-bookable" d="M57.096-29.59v-2.696h-3.041v.103l.066.026.066.056.044.075.015.086-.015.085-.044.075-.066.056-.082.03h-.087l-.081-.03-.067-.056-.043-.075v-.025l-3.129.005-.003.01-.044.076-.066.056-.082.03h-.087l-.081-.03-.067-.056-.043-.075-.003-.016-3.117-.026-.01.052-.042.075-.067.056-.072.027-.034.005-.075-.005-.022-.006-.047-.021-.067-.056-.043-.075-.008-.026h-3.119l-.004.025-.043.075-.067.056-.082.03h-.086l-.082-.03-.067-.056-.043-.075-.004-.026h-3.123l-.003.019-.043.075-.067.056-.082.03h-.086l-.082-.03-.067-.056-.043-.075v-.172l-.006.034h-3.121v.148l-.043.075-.067.056-.054.023-.052.01-.075-.006-.018-.005-.051-.022-.067-.056-.043-.075V-32h-3.131v.138l-.043.075-.067.056-.082.03h-.086l-.082-.03-.067-.056-.043-.075v-.08l-3.137.024-.015.086-.043.075-.067.056-.081.03h-.087l-.082-.03-.066-.056-.044-.075-.012-.052-3.088.009-.009.023-.039.064-.066.056-.082.03h-.087l-.081-.03-.067-.056-.043-.075v-.008l-3.136-.004-.004.02-.043.076-.067.056-.081.03h-.087l-.082-.03-.066-.056-.044-.075-.002-.016-3.246-.32H11.76v-.08h-.837l-1.892 1.907.044.044v.029h11.82v.7h4.4l2.546-.004 4.554.004h24.7" style="stroke-width:.1" />
      <path id="12268" class="room non-bookable" d="m39.402-32.109.067-.056.067-.026v-9.319h-7.068v9.323l.053.022.067.056.043.075V-32h3.131v-.024l.043-.075.067-.056.082-.03h.086l.082.03.067.056.043.075V-32h3.121l.006-.034.043-.075" style="stroke-width:.1" />
      <path id="12302" class="room bookable" d="m50.63-24.058-.043.075-.067.056-.081.03h-.087l-.082-.03-.066-.056-.044-.075-.004-.027-3.109.005-.01.052-.042.075-.067.056-.06.025v9.327h7.018v-9.371l-.018-.01-.067-.055-.043-.075-.004-.024-3.118.002-.006.02" style="stroke-width:.1" />
      <path id="12274" class="room non-bookable" d="M37.834-29.59v.1h-.013v3h19.275l-3.04-.5H48.96l-.207.004-.205-.028-.198-.059-.187-.088-.278-.278-.085-.167-.055-.178-.025-.186.008-.187.038-.183.07-.173.097-.16.749-.408 5.374.033v2.058l3.04.5v-3.1H37.834" style="stroke-width:.1" />
      <path id="12298" class="room non-bookable" d="M66.116-25.79h-3.18v-4.41h-2.88v6.31h.175v.1h5.515v-.1h.37v-1.9" style="stroke-width:.1" />
      <path id="12278" class="room non-bookable" d="M14.948-23.765H9.043v4.13h5.905v-4.13" style="stroke-width:.1" />
      <path id="12262" class="room non-bookable" d="M17.937-36.435h-5.821v4.115h5.82v-4.115" style="stroke-width:.1" />
      <path id="12266" class="room non-bookable" d="m5.699-23.618-2.548-.001v3.983h5.797v-4.13H6.056l-.066.003-.144.144h-.147" style="stroke-width:.1" />
      <path id="12295" class="room non-bookable" d="M57.226-30.29h8.89v-1.996h-8.89v1.996" style="stroke-width:.1" />
      <path id="12271" class="room non-bookable" d="M12.746-30.29h-3.67v.29h-.17v3.921h.2v.289h3.64v-4.5" style="stroke-width:.1" />
      <path id="12299" class="room non-bookable" d="M54.056-23.633v3.997h3.925v-3.997h-3.925" style="stroke-width:.1" />
      <path id="12280" class="room non-bookable" d="M57.269-36.435h-3.214v1.849h1.6v2.2h2.668v-4.049H57.27" style="stroke-width:.1" />
      <path id="12273" class="room non-bookable" d="M27.842-29.594v.1l.026 2.904h4.528v-3l-4.554-.004" style="stroke-width:.1" />
      <path id="12270" class="room non-bookable" d="M17.936-26.57h.18v-1.67h-.18v-1.955h-2.88v4.405h2.88v-.78" style="stroke-width:.1" />
      <path id="12277" class="room non-bookable" d="m54.056-29.048-5.374-.033-.75.408-.097.16-.069.173-.038.183-.008.187.025.186.055.178.085.167.278.278.187.088.198.059.205.028.207-.004h5.096v-2.058" style="stroke-width:.1" />
      <path id="12284" class="room non-bookable" d="M61.668-32.386h2.187v-4.049h-3.787v1.849h1.6v2.2" style="stroke-width:.1" />
      <path id="12301" class="room non-bookable" d="M63.371-23.66h-3.14v3.238h3.14v-3.238" style="stroke-width:.1" />
      <path id="12308" class="room non-bookable" d="M35.946-29.49h-3.45v2.9h3.45v-2.9" style="stroke-width:.1" />
      <path id="12311" class="room non-bookable" d="m27.742-29.494-2.446.004h-.8v2.9h3.272l-.026-2.904" style="stroke-width:.1" />
      <path id="12292" class="room non-bookable" d="M71.099-19.34h4.162v-2.25h-4.162v2.25" style="stroke-width:.1" />
      <path id="12291" class="room non-bookable" d="M77.15-41.535v-4.3H75.3v4.3h1.85" style="stroke-width:.1" />
      <path id="12279" class="room non-bookable" d="M65.746-20.422v-3.238H63.5v3.238h2.245" style="stroke-width:.1" />
      <path id="12300" class="room non-bookable" d="M58.076-23.633v3.997h1.8v-3.997h-1.8" style="stroke-width:.1" />
      <path id="12297" class="room non-bookable" d="m63.205-25.98.156-.026.209-.047.218-.074.173-.081.163-.1.155-.113.158-.137.139-.145.158-.212.15-.284.058-.144.057-.18.037-.187.026-.225-.002-.198-.012-.177-.033-.176-.039-.146-.052-.151-.082-.184-.083-.153-.174-.241-.104-.114-.123-.117-.12-.1-.282-.181-.263-.116-.161-.05-.299-.055-.297-.015v4.138l.269-.009" style="stroke-width:.1" />
      <path id="12276" class="room non-bookable" d="m14.567-30.06-.29.079-.3.143-.129.081-.141.103-.12.102-.2.214-.184.263-.072.137-.115.306-.043.173-.022.126-.025.293.007.152.048.31.042.161.051.14.129.272.148.22.181.209.204.178.295.19.181.085.314.099.261.044.269.009v-4.138l-.332.017-.157.032" style="stroke-width:.1" />
      <path id="12267" class="room non-bookable" d="M15.043-19.636h2.893v-1.81h-2.893v1.81" style="stroke-width:.1" />
      <path id="12272" class="room non-bookable" d="M21.396-29.59v3.1h1.6v-3.1h-1.6" style="stroke-width:.1" />
      <path id="12307" class="room non-bookable" d="M37.72-29.49h-1.674v2.9h1.675v-2.9" style="stroke-width:.1" />
      <path id="12281" class="room non-bookable" d="M63.955-32.386h2.15v-2.055h-2.15v2.055" style="stroke-width:.1" />
      <path id="12260" class="room non-bookable" d="M59.876-27.84v-1.67h-2.6v1.67h2.6" style="stroke-width:.1" />
      <path id="12264" class="room non-bookable" d="M20.716-26.57v-1.67h-2.55v1.67h2.55" style="stroke-width:.1" />
      <path id="12290" class="room non-bookable" d="M74.75-34.505v-1.93h-2.204v1.93h2.205" style="stroke-width:.1" />
      <path id="12286" class="room non-bookable" d="M58.423-32.386h1.5v-1.85h-1.5v1.85" style="stroke-width:.1" />
      <path id="12282" class="room non-bookable" d="M64.955-36.435h-1v1.849h1v-1.849" style="stroke-width:.1" />
      <path id="12305" class="room non-bookable" d="M23.096-26.59h1.3v-1.402h-1.3v1.402" style="stroke-width:.1" />
      <path id="12306" class="room non-bookable" d="M24.396-28.092v-1.398h-1.3v1.398h1.3" style="stroke-width:.1" />
      <path id="12293" class="room non-bookable" d="M54.055-32.386h1.5v-1h-1.5v1" style="stroke-width:.1" />
      <path id="12283" class="room non-bookable" d="M60.068-32.386h1.5v-1h-1.5v1" style="stroke-width:.1" />
      <path id="12289" class="room non-bookable" d="M55.555-34.486h-1.5v1h1.5v-1" style="stroke-width:.1" />
      <path id="12285" class="room non-bookable" d="M61.568-33.486v-1h-1.5v1h1.5" style="stroke-width:.1" />
      <path id="12288" class="room non-bookable" d="M59.923-34.335v-1h-1.5v1h1.5" style="stroke-width:.1" />
      <path id="12287" class="room non-bookable" d="M59.923-35.435v-1h-1.5v1h1.5" style="stroke-width:.1" />
      <path id="12261" class="room non-bookable" d="M57.276-30.19v.5h2.6v-.5h-2.6" style="stroke-width:.1" />
      <path id="12265" class="room non-bookable" d="M20.716-25.89v-.5h-2.6v.5h2.6" style="stroke-width:.1" />
      <path id="12263" class="room non-bookable" d="M21.296-27.59h-.4v1h.4v-1" style="stroke-width:.1" />
    </g>
    <g id="floorGraphicsGroup">
      <path d="M65.066-25.89v-.5h-.6l-.083.5h.683m-.683-4.3.083.5h.6v-.5h-.683m-4.507 4.22v-1.69h-2.6v1.69h2.6m0-1.87v-1.67h-2.6v1.67h2.6m-2.6-2.35v.5h2.6v-.5h-2.6m-39.339-6.245h-5.821v4.115h5.82v-4.115m2.96 8.195h0v.6h.4v-1.85h-.4v1.25m-2.78-.18h2.6v-1.69h-2.6v1.69m3.18.83h-.4v1h.4v-1m-.58 1.02v-1.67h-2.55v1.67h2.55m0 .68v-.5h-2.6v.5h2.6m-7.106 0-.084-.5h-.6v.5h.683m-.683-4.3v.5h.6l.083-.5h-.683m-7.227 6.572-2.548-.001v3.983h5.797v-4.13H6.056v.003H5.99l-.144.144h-.147m9.344 3.983h2.893v-1.81h-2.893v1.81" style="stroke-width:.1" class="nonroom" />
      <path d="M18.107-23.904h0l3.266-.308-.002.003.044-.075.066-.056.082-.03h.087l.081.03.067.056.043.075.002.009h3.138l.004-.022.043-.075.067-.056.144-.031.024.002.082.03.067.055.043.075.004.022h3.095l.004-.026.043-.075.067-.056.082-.03h.086l.082.03.067.056.043.075.004.026h3.125v-.027l.043-.075.067-.056.082-.03h.086l-.04-2.102h5.426v-.1h0v-2.9h.013v-.1l-1.712-2.131.067-.056.043-.075v-.172l-.043-.075-.067-.056-.082-.03h-.086l-.082.03-.067.056-.043.075v.172l.043.075.067.056.051.022.018.005.075.005.052-.01.054-.022 1.712 2.131h-5.438v3.1l.04 2.103.081.03.067.055.043.075.005.027h3.12l.005-.026.043-.075.067-.056.082-.03h.086l.082.03.067.056.043.075.004.026h3.124l.006-.034.043-.075.067-.056.082-.03h.086l.082.03.067.056.043.075.006.034h3.121l.006-.034.043-.075.067-.056.064-.025.08-.007.04.006.066.026.067.056.043.075.006.034h3.128l.043-.075.067-.056.044-.02.025-.007.075-.005.045.007.061.025.067.056.043.075h0l3.118-.004.004-.026.044-.075.066-.056.082-.03h.087l.081.03.067.056.043.075.01.032 3.113-.002.005-.028.043-.075.067-.056.082-.03h.086l.082.03.067.056.043.075.015.086-.015.086-.043.075-.067.056-.062.025h0v.137h5.82v-.127h.05v-1.9h-.05 0-2.6 0-.18v-4.5h0v-1.996h-.1 0-2.941v.103h0l.066.026.066.056.044.075.015.086-.015.085-.044.075-.066.056-.082.03h-.087l-.081-.03-.067-.056-.043-.075v-.025l-3.129.005-.003.01-.044.076-.066.056-.082.03h-.087l-.081-.03-.067-.056-.043-.075-.003-.016-3.117-.026-.01.052-.042.075-.067.056-.072.027-.034.005-.075-.005-.022-.006-.047-.021-.067-.056-.043-.075-.008-.026h-3.119l-.004.025-.043.075-.067.056-.082.03h-.086l-.082-.03-.067-.056-.043-.075-.004-.026h-3.123l-.003.019-.043.075-.067.056-.082.03h-.086l-.082-.03-.067-.056-.043-.075v-.172l.043-.075.067-.056.067-.026h0v-9.319h-7.068v9.323h0l.053.022.067.056.043.075v.172l-.043.075-.067.056-.082.03h-.086l-.082-.03-.067-.056-.043-.075v-.08l-3.137.024h0l-.015.086-.043.075-.067.056-.081.03h-.087l-.082-.03-.066-.056-.044-.075-.012-.052h0l-3.088.009h0l-.009.023-.039.064-.066.056-.082.03.053 2.112h0-2.3v3.1h4.873v-.1h0l-.027-2.904h0v-.1l-2.546.004-.053-2.113h-.087l-.081-.03-.067-.055-.043-.075v-.008l-3.136-.004-.004.02-.043.076-.067.056-.081.03h-.087l-.082-.03-.57 1.433h-2.96 0-2.879 0-1.43 0-.7 0-.18v4.5h2.31v-.181l-.269-.009-.261-.044-.314-.1-.181-.084-.295-.19-.204-.178-.181-.208-.148-.221-.129-.272-.051-.14-.042-.162-.048-.309-.007-.152.025-.293.022-.126.043-.173.115-.306.072-.137.184-.263.2-.214.12-.102.141-.103.129-.081.3-.143.29-.079.157-.032.332-.017v-.086h2.88v1.955h.18v1.67h-.18v.78h0-2.893v.095h2.893v-.095h2.96v-.7h.5v-.1h0v-1h0v-2h-.5v-.7l.57-1.433-.067-.056-.044-.075-.002-.016-3.246-.32h0-.17 0-5.821 0-.355v-.08h-.837l-1.892 1.907.044.044V-30h-.17v3.922h.2v.289h-.415v-.08h-.708l-1.952 1.952h0l-.022.023h9.034v2.36h2.893l.001-2.37h.17" style="stroke-width:.1" class="nonroom" />
      <path d="M14.948-23.765H9.043v4.13h5.905v-4.13m50.798 3.343v-3.238H63.5v3.238h2.245m-8.476-16.013h0-2.984 0-.23v1.849h1.6v2.2h2.668v-4.049H57.27m6.685 4.049h2.15v-2.055h-2.15v2.055m2.15-2.2v-1.849h-1.05v1.849h1.05m-1.15-1.849h-1v1.849h1v-1.849m-4.887 4.049h1.5v-1h-1.5v1" style="stroke-width:.1" class="nonroom" />
      <path d="M61.668-32.386h2.187v-4.049h-3.787v1.849h1.6v2.2" style="stroke-width:.1" class="nonroom" />
      <path d="M61.568-33.486v-1h-1.5v1h1.5m-3.145 1.1h1.5v-1.85h-1.5v1.85m1.5-3.049v-1h-1.5v1h1.5m0 1.1v-1h-1.5v1h1.5m-4.368-.151h-1.5v1h1.5v-1m19.195-.019v-1.93h-2.204 0v1.93h2.205m1.154-14.876v-1.108H75.3v1.108h.604m1.246 7.846v-4.3H75.3v4.3h1.85M71.099-19.34h4.162v-2.25h-4.162v2.25M54.055-32.386h1.5v-1h-1.5v1" style="stroke-width:.1" class="nonroom" />
      <path d="M66.246-32.286v1.996h2.6v.275h.3v-.275h-2.9 0v.18h-1v4.14h1v.18h2.9v-.275h-.3v.275h-2.6 0v1.9h0v4.55h1.203v-.1h.05v.1h1.15v-.1h.05v.1h1.15v-.1h.05v.1h1.15v-2.3h4.262v2.3h1.15v-.1h.05v.1h1.2v-17.095h-2.815v2.03l-.155 1.809v.49h.49v-.49h-.49l.155-1.81H72.4l.145 1.81h-.49v.49h.49v-.49l-.145-1.81v-2.029h-6.15v4.149h-.004" style="stroke-width:.1" class="nonroom" />
      <path d="M65.066-25.79v-.1h-.683l-.017.1h.7m-.7-4.5.017.1h.683v-.1h-.7m-4.31 4.5h0v-2.35h-.18v.3m0 2.05h.05m-.05-1.87v1.69m.18-4.32h0-.18 0m0 .78v.37h.18v-1.06m-.18.01v.5m.18 1.55v-.04h-.18v.04h.18m0-1v.04h-.18v-.04h.18m-.18-.55h-2.6m0 .18h2.6m-2.6 3.72h.907v-.18h-.907m2.6 0h-.893v.18h.893m-.893 0h-.04v-.18h.04v.18m-.8 0h.04v-.18h-.04v.18m.76 0v.72m0 0-.14-.014-.135-.04-.125-.067-.109-.09-.09-.109-.066-.124-.04-.135-.015-.14m-.947-1.871h2.6m0-.18h-2.6m0-2.35h0v-.1h0m2.6 0h-.01v.1h.01m-.01-.1h-.04v.1h.04v-.1m-2.59 0h.04v.1h-.04v-.1m2.55 0v-1.255m-2.51 1.255v-1.255m2.51 0-.179.013-.175.038-.167.063-.158.085-.143.108-.127.126-.107.144-.086.157-.062.168-.038.175-.013.178m-1.255-1.255.178.013.175.038.168.063.157.085.144.108.126.126.108.144.085.157.063.168.038.175.013.178m1.485.09h.02v-.09h0-.02m.4 0h0v.09h0v-.09m1 0v.09h.08v-.09h-.08m1.08 0v.09h0v.001h0v-.091m.38 0v.091h0v-.001h.02v-.09h-.02m-2.46 0h-.04v.09h.04v-.09m-.38 0h.04v.09h-.04v-.09m.34 0h-.3m.3.045h-.3m.3.045h-.3m.34 0h.04v-.09h-.04v.09m1 0h-.04v-.09h.04v.09m-.96 0v.92m0 0 .16-.014.155-.041.145-.068.131-.092.114-.113.092-.132.067-.145.042-.155.014-.16m1.12-.09h-.04v.09h.04v-.09m-1 0h.04v.09h-.04v-.09m.96 0v-.92m0 0-.16.014-.155.042-.145.067-.132.092-.113.114-.092.131-.068.145-.041.155-.014.16m.96.09h.04v-.09h-.04v.09m.38 0h-.04v-.09h.04v.09m-.34 0h.3m-.3-.045h.3m-.3-.045h.3m-23.34-1.901.145.009v-9.328h-.145v9.319m-7.068-9.319h-.145v9.323h.145v-9.323m21.417 0v5.075h.4m0-.355v-5.16M11.76-36.79v4.34m0 .18v.08h.356v-4.245m0 0h.603l.025-.175v-.18h-.983m.983 0h1.5m-1.524.355h1.548m-.024-.355v.18l.024.175h1.442l.024-.175v-.18h-1.49m1.49 0h1.5m-1.524.355h1.549m.447-.355h-.472v.18l.025.175h.847" style="stroke-width:.1" class="nonroom" />
      <path d="M14.244-36.71h-.04v.1h.04v-.1m-1.5 0h.04v.1h-.04v-.1m1.46 0h-.92m.92.05h-.92m.92.05h-.92m0-.1h-.04v.1h.04v-.1m-.04 0h-.46m.46.05h-.46m.46.05h-.46m4.45-.1h-.04v.1h.04v-.1m-1.5 0h.04v.1h-.04v-.1m1.46 0h-.92m.92.05h-.92m.92.05h-.92m0-.1h-.04v.1h.04v-.1m-.04 0h-.46m.46.05h-.46m.46.05h-.46M3.15-19.636v-3.983m-.45-.355v4.693m.45-4.339 2.549.002v-.355l-2.998-.001m6.247.209v4.13h.095v-4.13m45.242-12.67h.526l.025-.175v-.18h-.551m.551 0h1.5m-1.525.355h1.55m-.025-.355v.18l.024.175h.909l-.55-.355h-.383m0 .08h-.04v.1h.04v-.1m-1.5 0h.04v.1h-.04v-.1m1.46 0h-.92m.92.05h-.92m.92.05h-.92m0-.1h-.04v.1h.04v-.1m-.04 0h-.46m.46.05h-.46m.46.05h-.46m2.393.175h1.054m14.223 0h0v-.45H57.269m1.154.45h1.5m.145 0h3.787m.1 0h1m.1 0h1.05m.145 0h6.15M2.7-19.28h1.066v-.356H3.15m2.696 0v.356h.3v-.355h-.3" style="stroke-width:.1" class="nonroom" />
      <path d="M8.226-19.636v.356h1.54v-.355h-1.54m3.62-.001v.356h.3v-.355h-.3m2.38-.001v.356h1.53v-.355h-1.53m3.88-.001h-.85v.355h.45m-13.94-.079h.04v-.09h-.04v.09m2.08 0h-.04v-.09h.04v.09m-2.04 0h.447m-.447-.046h.447m-.447-.044h.447m0 .09h.04v-.09h-.04v.09m.04 0h1.513m-1.513-.046h1.513m-1.513-.044h1.513m.34.09h.04v-.09h-.04v.09m2.08 0h-.04v-.09h.04v.09m-2.04 0h1.512m-1.512-.046h1.512m-1.512-.044h1.512m0 .09h.04v-.09h-.04v.09m.04 0h.448m-.448-.046h.448m-.448-.044h.448" style="stroke-width:.1" class="nonroom" />
      <path d="M9.766-19.36h.04v-.09h-.04v.09m2.08 0h-.04v-.09h.04v.09m-2.04 0h.447m-.447-.046h.447m-.447-.044h.447m0 .09h.04v-.09h-.04v.09m.04 0h1.513m-1.513-.046h1.513m-1.513-.044h1.513m.34.09h.04v-.09h-.04v.09m2.08 0h-.04v-.09h.04v.09m-2.04 0h1.512m-1.512-.046h1.512m-1.512-.044h1.512m0 .09h.04v-.09h-.04v.09m.04 0h.448m-.448-.046h.448m-.448-.044h.448m2.071.01h-.04v.09h.04v-.09m-.5 0h.04v.09h-.04v-.09m.46 0h-.42m.42.044h-.42m.42.046h-.42m1.46.07h-.04v-.356h.04v.355m-1 .001h.04v-.356h-.04v.355m.96.001v.92" style="stroke-width:.1" class="nonroom" />
      <path d="m17.217-18.36-.16-.015-.155-.041-.145-.068-.132-.092-.113-.113-.092-.132-.068-.145-.041-.155-.014-.16m1.81-13.039v-4.115h-.17v4.115m0 .13h.17m35.948-.196v-1m0-1.2v-1.849h-.17v4.27l.17-.018v-.103m0-1.2v-1M17.937-32.32h-.402v.131h.402m-1.892-.001v.001-.13h-1.269v.13h1.269m-2.169-.001v-.13h-1.32v.131h1.32m-1.76-.001v.001h0v-.13h0v.13m3.929-.001h.04v-.13h-.04v.13m1.49 0h-.04v-.13h.04v.13m-1.45 0h1.41m-1.41-.065h1.41m-1.41-.065h1.41m-3.619 0h.04v.13h-.04v-.13m.9 0h-.04v.13h.04v-.13m-.86 0v-.82m0 0 .143.013.138.037.13.06.116.082.101.101.082.117.06.13.038.138.012.142m-2.62.13h.04v-.13h-.04v.13m.44 0h-.04v-.13h.04v.13m-.4 0h.36m-.36-.065h.36m-.36-.065h.36m-6.612 8.275.127.127h0l-.128-.128.001.001m0 0 1.945-1.944m-1.818 2.071 1.945-1.944m-.067-.188-.06.06h-.001l.127.127h0l.008-.007" style="stroke-width:.1" class="nonroom" />
      <path d="m7.849-25.99-.029.029.128.127.028-.028-.127-.127m-1.945 1.944.028-.028.128.127-.029.028-.127-.127m1.916-1.916-1.888 1.888m1.952-1.825L5.996-24.01m1.952-1.824L6.06-23.946m1.923-1.924h.013v-.18h0-.087m.781 0h0v.18h.001v-.18m-.695.18h.04v-.18h-.04v.18m.694 0h-.04v-.18h.04v.18m-.654 0h.615m-.615-.09h.615m-.615-.09h.615m.075-.029h.18-.18 0m0-3.92h.18v-.002h-.18m.18 3.922v-.04h-.18v.04h.18m0-3.92v.04h-.18v-.04h.18m0 3.88v-3.84m-.09 3.84v-3.84m-.09 3.84v-3.84m.178-.531.128.127.016-.016h0l-.128-.127h0l-.016.016m1.945-1.96-.062.063h0l.127.127h0l.01-.01m-1.876 1.89.028-.028-.128-.126-.028.028.128.127m1.866-1.881-.028.028-.128-.127.029-.028.127.127m-1.838 1.852 1.81-1.824M9.012-30.47l1.81-1.825m-1.874 1.761 1.81-1.825m.166.089h.012v-.18h0-.087m.911 0h0v.18h0m-.824 0h.04v-.18h-.04v.18m.824 0h-.04v-.18h.04v.18m-.784 0h.745m-.745-.09h.745m-.745-.09h.745m6.385-3.985v-5.075m-.4-.44v5.16m.4-4.72h.04v.001-.44h-.44m.44-.001h3.27m-3.27.44h3.27m0-.44v.441h.36v-.44h-.36m.36-.001h3.27m-3.27.44h3.27m0-.44v.441h.315v-.442.001h-.315m.314 0h3.27m-3.27.44h3.27m0-.44h0v.44h.33v.001-.44h-.33m.33-.001h3.27m-3.27.44h3.27m0-.44v.441h.346v-.44h-.345m.345-.001h3.27m-3.27.44h3.27m0-.44v.441h.33v-.44h-.33m.33-.001h3.27m-3.27.44h3.27m0-.44v.441h.33v-.44h-.33m.33-.001h3.27m-3.27.44h3.27m0-.44v.441h.33v-.44h-.33m.33-.001h3.27m-3.27.44h3.27m0-.44v.441h.33v-.44h-.33m.33-.001h3.27m-3.27.44h3.27m0-.44v.441h.33v-.44h-.33m.33-.001h3.27m-3.27.44h3.27m.439-.44h-.44v.441h.04m-35.739-.001h.04v-.44h-.04v.44m3.27 0h-.04v-.44h.04v.44m-3.23 0h3.19m-3.19-.22h3.19m-3.19-.22h3.19m.4.44h.04v-.44h-.04v.44m3.27 0h-.04v-.44h.04v.44m-3.23 0h3.19m-3.19-.22h3.19m-3.19-.22h3.19m3.624 0h-.04v.44h.04v-.44" style="stroke-width:.1" class="nonroom" />
      <path d="M25.36-41.95h.04v.44h-.04v-.44m3.23 0H25.4m3.19.22H25.4m3.19.22H25.4m3.56 0H29v-.44h-.04v.44m3.27 0h-.04v-.44h.04v.44m-3.23 0h3.19M29-41.73h3.19M29-41.95h3.19m.386.44h.04v-.44h-.04v.44m3.27 0h-.04v-.44h.04v.44m-3.23 0h3.19m-3.19-.22h3.19m-3.19-.22h3.19m.37.44h.04v-.44h-.04v.44m3.27 0h-.04v-.44h.04v.44m-3.23 0h3.19m-3.19-.22h3.19m-3.19-.22h3.19m.37.44h.04v-.44h-.04v.44m3.27 0h-.04v-.44h.04v.44m-3.23 0h3.19m-3.19-.22h3.19m-3.19-.22h3.19m.37.44h.04v-.44h-.04v.44m3.27 0h-.04v-.44h.04v.44m-3.23 0h3.19m-3.19-.22h3.19m-3.19-.22h3.19m.37.44h.04v-.44h-.04v.44m3.27 0h-.04v-.44h.04v.44m-3.23 0h3.19m-3.19-.22h3.19m-3.19-.22h3.19m.37.44h.04v-.44h-.04v.44m3.27 0h-.04v-.44h.04v.44m-3.23 0h3.19m-3.19-.22h3.19m-3.19-.22h3.19M6.056-23.895v.13h0v-.131h0m1.235.001v-.001.131h.11v-.13h-.11m1.109 0v.13h0v-.13m.643.13h.01v-.131h0-.122v.132h0v-.001h.017m1.34-.13v-.001.131h1.778v-.131h0-1.778m3.012.001v-.001.131h.12v-.13h-.12m1.648 0h-.002v.13h.002m-7.657-.13h-.04v.13h.04v-.13m-1.235 0h.04v.13h-.04v-.13m1.195 0H6.096m1.155.065H6.096m1.155.065H6.096m2.304 0h-.04v-.13h.04v.13" style="stroke-width:.1" class="nonroom" />
      <path d="M7.4-23.765h.04v-.13H7.4v.13m.96 0v.92m0 0-.159-.014-.155-.042-.145-.067-.132-.092-.113-.114-.092-.131-.068-.146-.041-.154-.014-.16m.959 0h.04v-.13H8.4v.13m.53 0h-.04v-.13h.04v.13m-.49 0h.45m-.45-.065h.45m-.45-.065h.45m1.398 0h-.04v.13h.04v-.13m-1.235 0h.04v.13h-.04v-.13m1.195 0H9.093m1.155.065H9.093m1.155.065H9.093m4.207-.13h-.04v.13h.04v-.13m-1.234 0h.04v.13h-.04v-.13m1.194 0h-1.154m1.154.065h-1.154m1.154.065h-1.154m2.314 0h-.04v-.13h.04v.13m-1 0h.04v-.13h-.04v.13m.96 0v.92m0 0-.159-.014-.155-.042-.145-.067-.132-.092-.113-.114-.092-.131-.068-.146-.041-.154-.014-.16m.959 0h.04v-.13h-.04v.13m.526 0h-.04v-.13h.04v.13m-.486 0h.446m-.446-.065h.446m-.446-.065h.446m39.38 4.615h.532v-.356h-.532m5.59 0h-3.168v.355h3.523m-5.413.001h.04v-.13h-.04v.13m1.89 0h-.04v-.13h.04v.13m-1.85 0v.904m1.81-.904v.904m-1.81 0 .158-.014.152-.04.143-.067.13-.09.11-.112.091-.13.067-.142.04-.153.014-.157" style="stroke-width:.1" class="nonroom" />
      <path d="m56.668-18.376-.157-.014-.152-.04-.143-.067-.13-.09-.11-.112-.091-.13-.067-.142-.04-.153-.015-.157m-9.04 4.736h.145v-9.327l-.146-.005.001 9.332m7.563.415v-5.15m0-.356h0-.4v5.091" style="stroke-width:.1" class="nonroom" />
      <path d="M53.886-14.545h-.04v.415h.44m-3.74 0v-.415h-.3v.415h.3m-3.6 0v-.415h-.3v.415h.3m-3.6 0v-.415h-.3v.415h.3m-3.6 0v-.415h-.3v.415h.3m-3.6 0v-.415h-.3v.415h.3m-3.6 0v-.415h-.3v.415h.3m-3.6 0v-.415h-.3v.415h.3m-3.6 0v-.415h-.3v.415h.3m-3.6 0v-.415h-.3v.415h.3m-4.04 0h.44v-.415h-.04m35.74.16h-.04v.08h.04v-.08m-3.3 0h.04v.08h-.04v-.08m3.26 0h-.685m.685.04h-.685m.685.04h-.685m-.001-.08h-.04v.08h.04v-.08m-.04 0h-1.769m1.769.04h-1.769m1.769.04h-1.769m0-.08h-.04v.08h.04v-.08m-.04 0h-.685m.685.04h-.685m.685.04h-.685m-.34-.08h-.04v.08h.04v-.08m-3.3 0h.04v.08h-.04v-.08m3.26 0h-.685m.685.04h-.685m.685.04h-.685m-.001-.08h-.04v.08h.04v-.08m-.04 0h-1.769m1.769.04h-1.769m1.769.04h-1.769m0-.08h-.04v.08h.04v-.08m-.04 0h-.685m.685.04h-.685m.685.04h-.685m-.34-.08h-.04v.08h.04v-.08m-3.3 0h.04v.08h-.04v-.08m3.26 0h-.685m.685.04h-.685m.685.04h-.685m-.001-.08h-.04v.08h.04v-.08m-.04 0h-1.769m1.769.04h-1.769m1.769.04h-1.769m0-.08h-.04v.08h.04v-.08m-.04 0h-.685m.685.04h-.685m.685.04h-.685m-.34-.08h-.04v.08h.04v-.08m-3.3 0h.04v.08h-.04v-.08m3.26 0h-.685m.685.04h-.685m.685.04h-.685m-.001-.08h-.04v.08h.04v-.08m-.04 0h-1.769m1.769.04h-1.769m1.769.04h-1.769m0-.08h-.04v.08h.04v-.08m-.04 0h-.685m.685.04h-.685m.685.04h-.685m-.34-.08h-.04v.08h.04v-.08m-3.3 0h.04v.08h-.04v-.08m3.26 0h-.685m.685.04h-.685m.685.04h-.685m-.001-.08h-.04v.08h.04v-.08m-.04 0h-1.769m1.769.04h-1.769m1.769.04h-1.769m0-.08h-.04v.08h.04v-.08m-.04 0h-.685m.685.04h-.685m.685.04h-.685m-.34-.08h-.04v.08h.04v-.08m-3.3 0h.04v.08h-.04v-.08m3.26 0h-.685m.685.04h-.685m.685.04h-.685m-.001-.08h-.04v.08h.04v-.08m-.04 0h-1.769m1.769.04h-1.769m1.769.04h-1.769m0-.08h-.04v.08h.04v-.08m-.04 0h-.685m.685.04h-.685m.685.04h-.685m-.34-.08h-.04v.08h.04v-.08m-3.3 0h.04v.08h-.04v-.08m3.26 0h-.685m.685.04h-.685m.685.04h-.685m-.001-.08h-.04v.08h.04v-.08m-.04 0h-1.769m1.769.04h-1.769m1.769.04h-1.769m0-.08h-.04v.08h.04v-.08m-.04 0h-.685m.685.04h-.685m.685.04h-.685m-3.64.015h.04v-.08h-.04v.08m3.3 0h-.04v-.08h.04v.08m-3.26 0h.685m-.685-.04h.685m-.685-.04h.685m0 .08h.04v-.08h-.04v.08m.04 0h1.77m-1.77-.04h1.77m-1.77-.04h1.77m-.001.08h.04v-.08h-.04v.08m.04 0h.686m-.686-.04h.686m-.686-.04h.686m-3.56-.015h-.04v.08h.04v-.08m-3.3 0h.04v.08h-.04v-.08m3.26 0h-.685m.685.04h-.685m.685.04h-.685m-.001-.08h-.04v.08h.04v-.08m-.04 0h-1.769m1.769.04h-1.769m1.769.04h-1.769m0-.08h-.04v.08h.04v-.08m-.04 0h-.685m.685.04h-.685m.685.04h-.685m-3.64.015h.04v-.08h-.04v.08" style="stroke-width:.1" class="nonroom" />
      <path d="M21.446-14.29h-.04v-.08h.04v.08m-3.26 0h.685m-.685-.04h.685m-.685-.04h.685m0 .08h.04v-.08h-.04v.08m.04 0h1.77m-1.77-.04h1.77m-1.77-.04h1.77m-.001.08h.04v-.08h-.04v.08m.04 0h.686m-.686-.04h.686m-.686-.04h.686m-3.29-14.05v-1.69m-.18-.18v2.05m.18-1.87h2.6m.18-.18h-2.96m2.78 4.4h-.01v.1h.19m-2.96 0h.18v-.1h0m0 .1h.04v-.1h-.04v.1m2.59 0h-.04v-.1h.04v.1m-2.55 0v1.255m2.51-1.255v1.255m-2.51 0 .178-.013.175-.038.168-.062.157-.086.144-.107.126-.127.108-.143.085-.157.063-.168.038-.175.013-.179" style="stroke-width:.1" class="nonroom" />
      <path d="m20.666-24.535-.179-.013-.175-.038-.167-.062-.158-.086-.143-.107-.127-.127-.107-.143-.086-.157-.062-.168-.038-.175-.013-.179m1.485-1.85v-.6m-.18 1.85v.5m.18.1v-.7m0-.1v-1m-.18-.65v1.67m-2.6 0h-.18m.18.18h2.6m0-.18h-2.55m2.73-1.67h0m-.18-.18h-2.6m-.18.18h.18m.05 0h2.55m0-1.87v1.69m.18-1.17v-.7m0 2.05v-1.25m0 0h.4m.1-.1h-.5m.4.1v1.85m.1.05v-2m-.5 3.1h.5v-.1h0m-.1 0h-.4m.4-1.05h-.4m.5.05h0m-.5 0h.4m0 0v.005h.1v-.005m0 1v-.005h-.1v.005m.1-.005v-.04h-.1v.04h.1m0-.99v.04h-.1v-.04h.1m0 .95h.46m-.46-.91h.46m0 .91-.012-.102-.034-.097-.054-.088-.073-.072-.088-.055-.097-.034-.102-.012m-3.28-1.145v.29h.05v-.29m0 1.67v-.28h-.05v.28m0-.28v-.04h.05v.04h-.05m0-1.1v.04h.05v-.04h-.05m0 1.06h-1.02m0 0 .012-.16.038-.156.061-.147.084-.137.104-.122.121-.104.137-.083.148-.061.155-.038.16-.012m0 2.02v-.5m-.18-.18v.78m38.789-22.044h0l-.006 11.044.55.355h0m0-.45.006-10.95h0M12.926-25.89v.1h.7l-.017-.1h-.683m0-4.4v.1h.683l.017-.1h-.7m41.129-1.996h2.941m-1.441-.1h-1.5m2.941 0h0-1.341M17.706-19.28v5.15m.4-.415v-5.09m-3.158-4.13v4.13h.095v-1.81m0-.09v-2.36h-.095 0m3.159-.009h0-.17v2.369m-.001.09v1.81h.17v-4.149" style="stroke-width:.1" class="nonroom" />
      <path d="M15.043-21.445h.028v-.09h-.028m2.893 0h-.015 0v.09h.015" style="stroke-width:.1" class="nonroom" />
      <path d="M15.07-21.445h.04v-.09h-.04v.09m1.2 0h-.04v-.09h.04v.09m-1.16 0h1.12m-1.12-.045h1.12m-1.12-.045h1.12m1.04.09h-.04v-.09h.04v.09m-1 0h.04v-.09h-.04v.09m.96 0v.92m0 0-.159-.014-.155-.042-.145-.067-.132-.092-.113-.114-.092-.131-.068-.146-.041-.154-.014-.16m1.609-.089h-.04v.09h.04v-.09m-.65 0h.04v.09h-.04v-.09m.61 0h-.57m.57.044h-.57m.57.046h-.57m36.746-2.319v-.137l-.17-.016v4.28h.17v-3.997m3.924 0v3.997h.096v-3.997m2.154 4.353v-4.61h-.354v4.254m5.87.346h.5v-4.6h-.5v4.6m-5.516-4.5v.13h0v-.13m3.271.13h2.245v-.13h-2.44v.129h.065m-3.141.001h.04v-.13h-.04v.13m.55 0h-.04v-.13h.04v.13m-.51 0h.47m-.47-.065h.47m-.47-.065h.47m.04.13h.04v-.13h-.04v.13m1.89 0h-.04v-.13h.04v.13m-1.85 0v.905m1.81-.905v.905m-1.81 0 .158-.014.152-.04.143-.067.13-.09.111-.112.09-.13.067-.143.041-.152.014-.157m.904.905-.156-.014-.153-.04-.143-.067-.129-.09-.111-.112-.09-.13-.068-.143-.04-.152-.014-.157m.944-.001h.04v-.12h-.04v.12m.636 0h-.04v-.12h.04v.12m-.596 0h.556m-.556-.06h.556m-.556-.06h.556m-3.036 3.359v.13h0v-.13" style="stroke-width:.1" class="nonroom" />
      <path d="M63.371-20.422h-.065v.129h2.44v-.13H63.5m-3.27.131h.04v-.13h-.04v.13m.55 0h-.04v-.13h.04v.13m-.51 0h.47m-.47-.065h.47m-.47-.065h.47m.04.13h.04v-.13h-.04v.13m1.89 0h-.04v-.13h.04v.13m-1.85 0v.905m1.81-.905v.905m-1.81 0 .158-.014.152-.04.143-.067.13-.09.111-.112.09-.13.067-.143.041-.152.014-.157m.904.905-.156-.014-.153-.04-.143-.067-.129-.09-.111-.112-.09-.13-.068-.143-.04-.152-.014-.157m.944-.001h.04v-.12h-.04v.12m.636 0h-.04v-.12h.04v.12m-.596 0h.556m-.556-.06h.556m-.556-.06h.556m-3.39-5.377h.05v.485h.13v-.485h0m0 1.885h-.13v.015h.13v-.015m-.13-1.4v.04h.13v-.04h-.13m0 1.4v-.04h.13v.04h-.13m0-1.36h-.96m.96 1.32h-.36m-.6-1.32.012.15.035.147.057.139.08.128.097.115.115.098.128.078.14.058.146.035.15.012m-.36.36.012-.093.036-.087.057-.075.075-.057.087-.036.093-.012m6.19-5.985h-.87v.18h1v-.18h0m0 4.5h0v-.18h-1v.18h.87m-9.12-6.496h.1m.13 0h.092v-.1h-.322 0m1.327 0h-.005v.1h.205v-.1h-.1m3.145 0h-1.5m-.145 0h-.4v.1h3.232v-.1h-1.087m2.187 0h-.1v.1h.195v-.1h.005m2.15 0H64.95v.1h1.166m.13 0h.004m-7.932-.1h-.04v.1h.04v-.1m-1 0h.04v.1h-.04v-.1m.96 0v-.92m0 0-.16.014-.154.042-.146.067-.131.092-.113.114-.092.131-.068.146-.042.154-.014.16m1.165.1h.04v-.1h-.04v.1m1 0h-.04v-.1h.04v.1m-.96 0v.92m0 0 .16-.014.155-.041.145-.068.132-.092.113-.113.092-.132.068-.145.041-.155.014-.16" style="stroke-width:.1" class="nonroom" />
      <path d="M63.755-32.386h-.04v.1h.04v-.1m-1 0h.04v.1h-.04v-.1m.96 0v-.92m0 0-.16.014-.155.042-.145.067-.132.092-.113.114-.092.131-.068.145-.041.155-.014.16m2.155.1h-.04v-.1h.04v.1m-1 0h.04v-.1h-.04v.1m.96 0v.92m0 0-.16-.014-.155-.041-.145-.068-.131-.092-.114-.114-.092-.13-.068-.146-.041-.155-.014-.16m2.26 0v-4.149m-.145 1.994v2.055m0-4.049v1.849m-2.15 2.2v-2.055m0-.145v.01h-.1v2.19m0-4.049v.959h.1v-.959m-.1.959v.04h.1v-.04h-.1" style="stroke-width:.1" class="nonroom" />
      <path d="M63.855-34.576v-.04h.1v.04h-.1m0-.86h-.82m0 0 .012.142.037.138.06.13.083.117.1.101.118.082.13.06.137.037.143.013m1.1.03h-1m0 .145h2.15m0-.145h-1.05m0 0v-1.849m-.1 0v1.849m-4.887 0v-1.849m-.145 2.2v1.85m.145-.001v-1m0-.1v-1m-.145-1.949v1m0 .1v1m.145-.151h1.5m.1-.1h-1.6m1.5.1v.1h.1v-.2m-.1 1.2v.1h.1v-.2h-.1 0m.1 1.1h0-.1 0" style="stroke-width:.1" class="nonroom" />
      <path d="M61.668-33.486v-.04h-.1v.04h.1m0-.9v.04h-.1v-.04h.1m0 .86h.82m0 0-.012-.143-.037-.138-.06-.13-.082-.116-.102-.101-.117-.082-.13-.06-.137-.038-.143-.012m0 1.96v-.04h-.1v.04h.1m0-.9v.04h-.1v-.04h.1m0 .86h.82m0 0-.012-.142-.037-.138-.06-.13-.082-.117-.102-.101-.117-.082-.13-.06-.137-.037-.143-.013m-.1-.24h-1.5m0 .1h1.5m-3.145 1v-1.85m0-.099v-.006h-.1v1.955m.1-3.049v-.002h-.1v.296h.1v-.194m-.1-1.1v.198h.1v-.198m-.1 1.294v.04h.1v-.04h-.1m0 .8v-.04h.1v.04h-.1m0-.76h-.72m0 0 .014.14.041.136.067.124.09.11.108.089.125.066.135.041.14.014m0-1.856v.04h.1v-.04h-.1m0 .8v-.04h.1v.04h-.1m0-.76h-.72m0 0 .014.14.041.136.067.124.09.11.108.089.125.066.135.041.14.014m1.6.042h-1.5m0 .1h1.5m0 1h-1.5m0 .1h1.5m-5.868-.251h1.5m.1-.1h-1.6m1.5.1v.1h.1v-.2m-.1 1.2v.1h.1v-.2h-.1 0m.1 1.1h0-.1 0" style="stroke-width:.1" class="nonroom" />
      <path d="M55.655-33.486v-.04h-.1v.04h.1m0-.9v.04h-.1v-.04h.1m0 .86h.82m0 0-.013-.143-.037-.138-.06-.13-.082-.116-.101-.101-.117-.082-.13-.06-.138-.038-.142-.012m0 1.96v-.04h-.1v.04h.1m0-.9v.04h-.1v-.04h.1m0 .86h.82m0 0-.013-.142-.037-.138-.06-.13-.082-.117-.101-.1-.117-.083-.13-.06-.138-.037-.142-.013m-.1-.24h-1.5m0 .1h1.5m22.155-3.049v8.45h.45v-8.81m0 10.81h-.45v.2h.45v-.2m0 2h-.45v6.695h.45v-6.695m0-2v-.04h-.45v.04h.45m0-2v.04h-.45v-.04h.45m0 4v-.04h-.45v.04h.45m0-1.8v.04h-.45v-.04h.45m-3.41-25.238h0v5.188h.55m0-4.749v-.439h0m0 4.938v-3.201m0-.095v-1.108m0 8.954h0-.55v4.74h.55v-4.49m-.55-4.55v.04h.12v-.04h-.12m0 3.3v-.04h.12v.04h-.12m0-3.26v3.22m.06-3.22v3.22m.06-3.22v3.22m-.12.04v.04h.55v-.04h-.55m0 1v-.04h.55v.04h-.55m0-.96h-.92m0 0 .015.16.041.154.068.146.092.131.113.114.132.092.145.067.155.042.16.014m-2.205 4.78v.36h.095v-.36h-.095" style="stroke-width:.1" class="nonroom" />
      <path d="M78.16-36.795h-3.519v.36h3.07m-5.07 0h.04v-.36h-.04v.36" style="stroke-width:.1" class="nonroom" />
      <path d="M74.641-36.435h-.04v-.36h.04v.36m-1.96 0v.96m1.92-.96v.96m-1.92 0 .15-.012.147-.035.139-.058.128-.079.115-.097.098-.115.078-.128.058-.14.035-.146.012-.15" style="stroke-width:.1" class="nonroom" />
      <path d="m74.601-35.475-.15-.012-.147-.035-.139-.058-.128-.079-.115-.097-.098-.115-.078-.128-.058-.14-.035-.146-.012-.15m1.109 1.93h-.11v.1h.256m-2.496 0h.24v-.1h-.094m.094.1h.04v-.1h-.04v.1m2 0h-.04v-.1h.04v.1m-1.96 0v.96m1.92-.96v.96m-1.92 0 .151-.012.147-.035.139-.058.128-.079.115-.097.098-.115.078-.128.058-.14.035-.146.012-.15m.959.96-.15-.012-.146-.035-.139-.058-.128-.079-.115-.097-.098-.115-.079-.128-.057-.14-.035-.146-.012-.15m-1.095-.1v-1.93m-.146 0v2.03m2.496 0v-2.03h-.145v1.93M75.3-50.49h.605m.095-.094h-.7m.605.094v1.109m.095.095v-1.298m-.095 1.203H75.3m0 .095h.7m-.7 3.451h1.85m.25-.25h-2.1m1.85.25v4.3m.25.25v-4.8m-.25 4.55H75.3m0 .25h2.1M66.246-19.34v.05h1.203v-.05h-1.203m4.853-2.25h0v-.12.07h-.05m1.99 0v.05h.044v-.05h-.044m1.784 0v.05h.02v-.05h-.02m.487 0h-.067v.05h.018m-4.162 0h.04v-.05h-.04v.05m.2 0h-.04v-.05h.04v.05m-.16 0h.12m-.12-.025h.12m-.12-.025h.12m.04.05h.04v-.05h-.04v.05m1.74 0h-.04v-.05h.04v.05m-1.7 0v.83m1.66-.83v.83m-1.66 0 .144-.013.14-.037.13-.061.12-.083.102-.103.083-.118.06-.131.038-.14.013-.144" style="stroke-width:.1" class="nonroom" />
      <path d="m72.999-20.76-.144-.013-.14-.037-.131-.061-.119-.083-.102-.103-.083-.118-.061-.131-.038-.14-.012-.144m2.654-.05h-.04v.05h.04v-.05m-1.74 0h.04v.05h-.04v-.05m1.7 0v-.83m-1.66.83v-.83m1.66 0-.144.012-.14.038-.131.061-.119.083-.102.102-.083.119-.06.13-.038.14-.013.145" style="stroke-width:.1" class="nonroom" />
      <path d="m73.123-22.47.144.012.14.038.131.061.119.083.102.102.083.119.06.13.038.14.013.145m.89.05h.04v-.05h-.04v.05m.4 0h-.04v-.05h.04v.05m-.36 0h.32m-.32-.025h.32m-.32-.025h.32" style="stroke-width:.1" class="nonroom" />
      <path d="M75.26-21.59h0-.068.12-.001v-.05m-.001 2.3h.07-.12 0m.05-1.15v-.04h-.05v.04h.05m0-1.1v.04h-.05v-.04h.05m0 1.06v-1.02m-.024 1.02v-1.02m-.026 1.02v-1.02m0 1.06v.04h.05v-.04h-.05m0 1.15v-.04h.05v.04h-.05m0-1.11v1.07m.026-1.07v1.07m.024-1.07v1.07m-4.211.04h.069-.12 0m.001-2.3v.05h-.07.12m-.05 1.1v.04h.05v-.04h-.05m0 1.15v-.04h.05v.04h-.05m0-1.11v1.07m.025-1.07v1.07m.025-1.07v1.07m0-1.11v-.04h-.05v.04h.05m0-1.1v.04h-.05v-.04h.05m0 1.06v-1.02m-.025 1.02v-1.02m-.025 1.02v-1.02m-3.55 2.21v.05h1.15v-.05h-1.15m1.2 0v.05h1.15v-.05h-1.15m2.35 0h-1.15v.05h1.4v-.05h-.2m1.94 0v.05h.044v-.05h-.044m2.221 0h-.437v.05h1.638v-.05h-1.15m-4.012.05h.04v-.05h-.04v.05m1.74 0h-.04v-.05h.04v.05m-1.7 0v.83m1.66-.83v.83m-1.66 0 .144-.013.14-.037.13-.061.12-.083.102-.103.083-.118.06-.131.038-.14.013-.144" style="stroke-width:.1" class="nonroom" />
      <path d="m72.999-18.46-.144-.013-.14-.037-.131-.061-.119-.083-.102-.103-.083-.118-.061-.131-.038-.14-.012-.144m2.654-.05h-.04v.05h.04v-.05m-1.74 0h.04v.05h-.04v-.05m1.7 0v-.83m-1.66.83v-.83m1.66 0-.144.012-.14.038-.131.061-.119.083-.102.102-.083.119-.061.13-.037.14-.013.145" style="stroke-width:.1" class="nonroom" />
      <path d="m73.123-20.17.144.012.14.038.13.061.12.083.102.102.083.119.06.13.038.14.013.145m2.557 0v.05h1.2v-.05h-1.2M39.835-32l-.003.12h.377V-32h-.374m1.374 0v.12h1.746V-32h-1.746m0 .12h-.04V-32h.04v.12m-1 0h.04V-32h-.04v.12m.96 0v.92m0 0-.16-.014-.155-.042-.145-.067-.131-.092-.114-.114-.092-.131-.068-.145-.041-.155-.014-.16m3.185-.12v.12h3.118V-32h-3.118m7.206.005-.008.12 1.618-.003v-.12l-1.61.003M53.25-32v.12h.51V-32h-.51m-1 .122h.04v-.12h-.04v.12m1-.002h-.04V-32h.04v.12m-.96.002.001.92m0 0 .16-.014.155-.042.145-.068.131-.092.114-.114.091-.131.068-.146.041-.155.014-.16m-35.103 8.096.716-.067-.011-.12-.705.067m1.7-.161.011.12 1.54-.145.015-.122-1.566.147" style="stroke-width:.1" class="nonroom" />
      <path d="m18.812-23.97.04-.005.01.12-.04.004-.01-.12m.995-.094-.04.004.012.12.04-.004-.012-.12m-.956.09-.086-.916" style="stroke-width:.1" class="nonroom" />
      <path d="m18.765-24.89.16-.002.159.027.15.054.14.08.124.102.103.122.082.138.055.15.03.158m5.691-.139.001.12h3.093v-.12H25.46m3.572 0v.12h1.302v-.12h-1.302m2.302 0v.12h.823v-.12h-.823m-1 0h.04v.12h-.04v-.12m1 0h-.04v.12h.04v-.12m-.96 0v-.92m0 0 .16.014.155.041.145.068.132.092.113.113.092.132.068.145.041.155.014.16m1.338 0v.12h.756v-.12h-.756m1.756 0v.12h1.364v-.12h-1.364m0 0h-.04v.12h.04v-.12m-1 0h.04v.12h-.04v-.12m.96 0v-.92m0 0-.16.014-.154.041-.146.068-.131.092-.113.113-.092.132-.068.145-.042.155-.014.16m2.803 0v.12h3.127l-.003-.12h-3.124m3.606 0-.003.12h3.127l-.003-.12h-3.121m3.603 0-.003.12h1.759v-.12H43.44m2.756 0v.12h.36l.012-.12h-.372m-1 0h.04v.12h-.04v-.12m1 0h-.04v.12h.04v-.12m-.96 0v-.92m0 0 .16.014.154.041.146.068.131.092.114.113.092.132.067.145.042.155.014.16m19.96-8.086v.049h.13v-.049m0 1.996v-.057h-.13v.057m0-1.947v.04h.13v-.04h-.13m0 1.89v-.04h.13v.04h-.13m0-1.85h-.905m.905 1.81h-.905m-.001-1.81.015.157.04.153.067.142.09.13.112.111.13.09.142.067.153.041.157.014m-.906.905.015-.157.04-.153.067-.142.09-.13.112-.111.13-.09.142-.067.153-.041.157-.014M50.64-24.198l-.004.12 3.118-.002v-.12l-3.115.002m-18.316 9.653h.145v-8.295h-.145v8.295m0-9.195h.145v-.163l-.145.002v.16m.145.001v.04h-.145v-.04h.145m0 .9v-.04h-.145v.04h.145m0-.86h.82m0 0-.012.142-.037.138-.06.13-.082.117-.102.101-.117.082-.13.06-.137.037-.143.013m24.808-7.41h-.05v-.005h-.13v.005h0m0-1.996v.1h.13v-.1m-.13.101v.04h.13v-.04h-.13m0 1.89v-.04h.13v.04h-.13m0-1.85h-.905m.905 1.81h-.905m-.001-1.81.015.157.04.152.067.143.09.13.112.111.13.09.142.067.153.041.157.014m-.906.905.015-.157.04-.153.067-.143.09-.129.112-.111.13-.091.142-.067.153-.04.157-.014m.179-16.595h0l-.004-1.35m-.551-.345.005 1.696h0m.545-1.351.505-.242h0m-.235-.497h0l-.82.393m1.055.104h0l.675-.315h0m-.238-.496h0l-.672.314h0m.91.182h0l.627-.31h0m-.232-.498h0l-.633.312h0m.865.187h0l.477-.209h0m-.21-.509h0l-.499.22h0m.709.289h0l.188-.073h0m-.202-.512h0l-.196.076h0m.398.436h0l.329-.132h0m-.202-.512h0l-.329.132h0m.53.38h0l.422-.163h0m-.195-.514h0l-.428.165h0m.623.349h0l.423-.156h0m-.186-.518h0l-.432.16h0m.618.358h0l.525-.184h0m-.178-.52h0l-.533.186h0m.711.334h0l.338-.112h0m-.169-.524h0l-.347.116h0m.516.408h0l.538-.17h0m-.161-.526h0l-.546.172h0m.707.354h0l.343-.103h0m-.153-.527h0l-.351.104h0m.505.423h0l.55-.154h0m-.145-.531h0l-.559.157h0m.704.374h0l.347-.092h0m-.137-.533h0l-.355.094h0m.492.438h0l.456-.113h0m-.129-.535h0l-.464.116h0m.593.419h0l.458-.106h0m-.121-.537h0l-.466.108h0m.586.428h0l.573-.122h0m-.111-.538h0l-.581.124h0m.692.414h0l.356-.07h0m-.102-.541h0l-.365.072h0m.467.469h0l.582-.105h0m-.093-.543h0l-.591.107h0m.684.436h0l.36-.06h0m-.084-.543h0l-.37.06h0m.454.484h0l.592-.087h0m-.076-.545h0l-.6.088h0m.676.457h0l.364-.048h0m-.067-.546h0l-.373.05h0m.44.497h0l.6-.069h0m-.057-.547h0l-.61.07h0m.667.477h0l.368-.036h0m-.05-.547h0l-.376.036h0m.426.511h0l.488-.04h0m-.041-.548h0l-.497.04h0m.538.508h0l.5-.033h0m-.032-.549h0l-.509.034h0m.541.515h0l.5-.024h0m-.023-.549h0l-.509.024h0m.532.525h0l.48-.015h0m-.012-.55h0l-.49.016h0m.503.534h0l.622-.008h0m-.003-.55h0l-.632.008h0m.635.542h0l.377.001h0m.007-.55h0l-.387-.001h0m.38.551h0l.438.008h0m.015-.55h0l-.447-.008h0m.431.558h0l.8.03h0m.02-.549h0l-.804-.031h0m.784.581h0l.43.013h0m.03-.55h0l-.44-.013h0m.41.563h0l.429.032h0m.052-.548h0l-.452-.034h0m.4.582h0l.426.05h0m.061-.547h0l-.435-.051h0m.374.598h0l.516.054h0m.062-.547h0l-.517-.054h0m.454.601h0l.48.058m.55-.487-.967-.118h0m.417.605v1.265h0m.55-1.741v-.01m0 1.751h0v-1.185m0 0 .575.083h0m.091-.543h0l-.665-.096m.574.639h0l.447.085h0m.106-.54h0l-.462-.088h0m.356.628h0l.502.102h0m.11-.539h0l-.506-.103h0m.396.642h0l.493.1h0m.11-.538h0l-.493-.1v-.001m.383.639h0l.482.1h0m.128-.535h0l-.5-.103h0m.372.638h0l.338.092h0m.148-.53h0l-.358-.097h0m.21.627h0l.337.096h0m.146-.53h0l-.335-.096h0m.189.626h0l.562.149h0m.145-.53h0l-.56-.15h0m.415.68h0l.247.07.15-.53-.252-.07h0M66.116-25.79h.13m0 1.89h-.13v.01h.13v-.01m-.13-1.89v.04h.13v-.04h-.13m0 1.89v-.04h.13v.04h-.13m0-1.85h-.905m.905 1.81h-.905m-.001-1.81.015.157.04.152.067.143.09.13.112.111.13.09.142.067.153.041.157.014" style="stroke-width:.1" class="nonroom" />
      <path d="m65.21-23.94.015-.157.04-.153.067-.143.09-.129.112-.111.13-.091.142-.067.153-.04.157-.014m-6.24 1.212v-.13h-.85v.13h.85m-1.8 0h.15v-.13H56.79v.13h1.19m-3.924 0h.844v-.13h-.844m4.17.13h.04v-.13h-.04v.13" style="stroke-width:.1" class="nonroom" />
      <path d="M59.026-23.633h-.04v-.13h.04v.13m-.76 0v.72m0 0 .14-.014.135-.04.125-.067.109-.09.09-.11.066-.124.041-.135.014-.14m-4.086 0h.04v-.13h-.04v.13m1.89 0h-.04v-.13h.04v.13m-1.85 0v.905m1.81-.905v.905m-1.81 0 .157-.014.153-.04.142-.067.13-.09.111-.112.09-.13.067-.143.041-.152.014-.157m.905.905-.157-.014-.153-.04-.142-.067-.13-.09-.111-.112-.09-.13-.067-.143-.041-.152-.014-.157m7.656 3.211v-.36h-.13v.36m0-3.238v2.077h.13v-2.077m0 2.877v-.04h-.13v.04h.13m0-.8v.04h-.13v-.04h.13m0 .76h.72m0 0-.013-.14-.041-.135-.067-.125-.09-.109-.109-.09-.124-.066-.135-.04-.14-.015M47.038-24.2l.009.12h.334v-.12h-.343m1.342-.002.001.12 1.775-.003v-.119l-1.775.002" style="stroke-width:.1" class="nonroom" />
      <path d="M47.38-24.2h.04l.001.12h-.04v-.12m.999-.002h-.04l.001.12h.04v-.12m-.961.002v-.92" style="stroke-width:.1" class="nonroom" />
      <path d="m47.42-25.12.16.013.154.042.146.067.131.092.114.113.092.132.068.145.042.155.014.16m-1.311-7.825.009.12 3.117.026-.004-.12-3.122-.026m-25.677.156L21.35-32l-1.419-.14-.013.129 1.434.14m-3.245-.319.817.08.013-.129-.83-.081" style="stroke-width:.1" class="nonroom" />
      <path d="m19.92-32.011-.04-.004.012-.13.04.005-.013.129m-.995-.099.04.005.013-.13-.04-.004-.013.13m.956.094-.09.916m0-.001-.158-.029-.15-.057-.138-.081-.122-.105-.102-.124-.079-.14-.053-.15-.026-.159.002-.16m6.332 2.515h0-2.3m1.5.1h.8m-2.2 0h1.3m3.372 2.9h-.722v.1h.823v-.1h0m-4.873.1h2.65v-.1h-1.15m-.1 0h-1.3m2.55.1h.04v-.1h-.04v.1m1.4 0h-.04v-.1h.04v.1m-3.95-.1h0-.1v.1m.1-1.602v-.6h-.1v1.302h.1v-.602m-.1-1.598v.098h.1v.002m-.1 2.9v-.04h.1v.04h-.1m0-.8v.04h.1v-.04h-.1m0 .76h-.72m0 0 .014-.14.04-.136.067-.124.09-.11.109-.089.124-.066.135-.041.14-.014" style="stroke-width:.1" class="nonroom" />
      <path d="M22.996-29.492v.04h.1v-.04h-.1m0 .8v-.04h.1v.04h-.1m0-.76h-.72m0 0 .014.14.04.136.067.124.09.11.109.089.124.066.135.041.14.014m1.401.74v1.402m.1 0v-2.9m-.1 0v1.398m0 0h-1.3m0 .1h1.3m-2.567-4.013v.13l3.136.004v-.13l-3.136-.004m10.667 5.415v-2.9m-.1-.1v3.1m.1-3h1.246v-.1h-1.346m3.65.1h1.675m.099 0h.014v-.1h-3.092v.1h1.204m-1.204-.1h-.04v.1h.04v-.1" style="stroke-width:.1" class="nonroom" />
      <path d="M33.742-29.59h.04v.1h-.04v-.1m.96 0v-.92m0 0-.16.014-.155.042-.145.067-.131.092-.114.114-.092.131-.068.146-.041.154-.014.16m3.938 3h-.33v.1h.43v-.1h0m-5.424.1h3.995v-.1h-.345m-.1 0h-3.45" style="stroke-width:.1" class="nonroom" />
      <path d="M36.39-26.49h.04v-.1h-.04v.1m1 0h-.04v-.1h.04v.1m-.96 0v.92" style="stroke-width:.1" class="nonroom" />
      <path d="m36.43-25.57.16-.014.155-.041.146-.068.131-.092.114-.113.092-.132.067-.145.042-.155.014-.16m.369-3v2.9m.1 0v-2.9m-1.874 0v2.9m.1 0v-2.9M24.98-24.081l.001-.12h-3.138l.006.12h3.13m3.548-7.803.017-.13-3.1.009-.005.13 3.088-.01m3.634-.056.021-.129-.785.005v.13l.764-.006m-1.763.014-.001-.13-1.412.012.04.127 1.373-.01" style="stroke-width:.1" class="nonroom" />
      <path d="M30.398-31.927h.04l-.001-.13h-.04v.13m1.001-.008h-.04l-.001-.13h.04v.13m-.959.008.007.92m0 0 .16-.016.154-.042.145-.07.13-.092.113-.114.09-.133.067-.145.04-.156.014-.16m-13.422 6.24v-.095h-.47v.095h.47m-1.9 0v-.095h-.993v.095h.993m1.43-.095h-.04v.095h.04v-.095m-1.43 0h.04v.095h-.04v-.095m1.39 0v-.915m-1.35.915v-.435m1.35-.48-.16.014-.153.041-.145.068-.13.091-.113.113-.092.13-.067.145-.041.154-.014.16m-.435-.436.096.011.092.032.083.052.069.069.052.082.032.092.01.097m1.426-4.5h-.456v.095h.456m-1.886 0v-.095h-.994v.095h.994m0 0h.04v-.095h-.04v.095m1.43 0h-.04v-.095h.04v.095m-1.39 0v.435m1.35-.435v.915m-1.35-.48.096-.01.092-.033.083-.052.069-.069.052-.082.032-.092.01-.097m.916.915-.16-.014-.153-.041-.145-.067-.13-.092-.113-.113-.092-.13-.067-.145-.042-.154-.013-.159m8.771.705h.35v-.1h-.35 0m2.546.096h0v-.1l-.796.001v.1h.696m-.696-.1h-.04v.1h.04v-.1m-1.4.003h.04v.1h-.04v-.1m2.096.096.026 2.904m.1 0-.026-2.904m8.405-2.444-.011-.074-.032-.067-.051-.054-.065-.038-.072-.016-.075.005-.069.027-.058.047-.042.062-.022.07v.075l.022.071.042.062.058.047.07.027.074.005.072-.016.065-.038.05-.054.033-.067.011-.074m32.599 6.148h.3v-.275h0-.3 0v.275m0-4.225h.3v-.275h0-.3 0v.275m3.21-2.091h.49v-.49h0-.49 0v.49m2.684 0h.49v-.49h0-.49 0v.49m1.72 12.816h.05v-.15h0-.05 0v.15m-6.611 0h.05v-.15h0-.05 0v.15m-1.2 0h.05v-.15h0-.05 0v.15m-1.2 0h.05v-.15h0-.05 0v.15m-4.513-6.5h1.43l.017-.1.083-.5h.6v.6h.18v-4.5h0-.18 0v.6h0-.6 0l-.083-.5-.017-.1h0-1.43 0v.181h0l.297.015h0l.299.055h0l.161.05h0l.263.116h0l.282.181h0l.12.1h0l.123.117h0l.104.114h0l.174.241h0l.083.153h0l.082.184h0l.052.151h0l.039.146h0l.033.176h0l.012.177h0l.002.198h0l-.026.225h0l-.037.186h0l-.057.181h0l-.058.144h0l-.15.284h0l-.158.212h0l-.139.145h0l-.158.137h0l-.155.112h0l-.163.101h0l-.173.081h0l-.218.074h0l-.209.047h0l-.156.026h0l-.269.009h0v.181M5.699-23.619h.147l.144-.144h.066v-.132h0-.047 0l.022-.023h0l-.127-.127h0l-.071.071h0-.134 0v.356m3.407-2.172h0v-.289h0-.38 0v.029h0-.035 0v.26h.415M8.726-30h.35v-.319h0l-.044-.044-.128-.127h0l-.101.1h0-.077 0v.39m4.02 4.21h.18v-.6h.6l.083.5.017.1h1.43v-.181h0l-.269-.009h0l-.261-.044h0l-.314-.1h0l-.181-.084h0l-.295-.19h0l-.204-.178h0l-.181-.208h0l-.148-.221h0l-.129-.272h0l-.051-.14h0l-.042-.162h0l-.048-.309h0l-.007-.152h0l.025-.293h0l.022-.126h0l.043-.173h0l.115-.306h0l.072-.137h0l.184-.263h0l.2-.214h0l.12-.102h0l.141-.103h0l.129-.081h0l.3-.143h0l.29-.079h0l.157-.032h0l.332-.017h0v-.181h0-1.43 0l-.017.1-.083.5h0-.6 0v-.6h0-.18 0v4.5m19.9-6.158-.011-.074-.032-.067-.051-.054-.065-.038-.072-.016-.075.005-.069.027-.058.047-.042.062-.022.07v.075l.022.071.042.062.058.047.07.027.074.005.072-.016.065-.038.05-.054.033-.067.011-.074m7.198 0-.011-.074-.032-.067-.051-.054-.065-.038-.072-.016-.075.005-.069.027-.058.047-.042.062-.022.07v.075l.022.071.042.062.058.047.07.027.074.005.072-.016.065-.038.05-.054.033-.067.011-.074m3.6.007-.011-.074-.032-.067-.051-.054-.065-.038-.072-.016-.075.005-.069.027-.058.047-.042.062-.022.07v.075l.022.071.042.062.058.047.07.027.074.005.072-.016.065-.038.05-.054.033-.067.011-.074m3.601.001-.011-.074-.032-.067-.051-.054-.065-.038-.072-.016-.075.005-.069.027-.058.047-.042.062-.022.07v.075l.022.071.042.062.058.047.07.027.074.005.072-.016.065-.038.05-.054.033-.067.011-.074m7.201 0-.011-.074-.033-.067-.05-.055-.065-.037-.072-.016-.075.005-.07.027-.057.047-.042.061-.022.072v.074l.022.071.042.062.058.046.07.028.074.005.072-.016.065-.038.05-.054.033-.068.01-.073M25.47-24.136l-.011-.074-.032-.067-.051-.054-.065-.038-.072-.016-.075.005-.069.027-.058.047-.042.062-.022.07v.075l.022.071.042.062.058.047.07.027.074.005.072-.016.065-.038.05-.054.033-.067.011-.074m3.573-.004-.011-.074L29-24.28l-.051-.054-.065-.038-.072-.016-.075.005-.069.027-.058.047-.042.062-.022.07v.075l.022.071.042.062.058.047.07.027.074.005.072-.016.065-.038.05-.054.033-.067.011-.074m3.599-.002-.011-.074-.032-.067-.051-.054-.065-.038-.072-.016-.075.005-.069.027-.058.047-.042.062-.022.07v.075l.022.071.042.062.058.047.07.027.074.005.072-.016.065-.038.05-.054.033-.067.011-.074m3.6.001-.011-.074-.032-.067-.051-.054-.065-.038-.072-.016-.075.005-.069.027-.058.047-.042.062-.022.07v.075l.022.071.042.062.058.047.07.027.074.005.072-.016.065-.038.05-.054.033-.067.011-.074m3.604-.008-.011-.074-.032-.067-.051-.054-.065-.038-.072-.016-.075.005-.069.027-.058.047-.042.062-.022.07v.075l.022.071.042.062.058.047.07.027.074.005.072-.016.065-.038.05-.054.033-.067.011-.074m3.603 0-.011-.074-.032-.067-.051-.054-.065-.038-.072-.016-.075.005-.069.027-.058.047-.042.062-.022.07v.075l.022.071.042.062.058.047.07.027.074.005.072-.016.065-.038.05-.054.033-.067.011-.074m10.794.006-.011-.074-.032-.067-.051-.054-.065-.038-.072-.016-.075.005-.069.027-.058.047-.042.062-.022.07v.075l.022.071.042.062.058.047.07.027.074.005.072-.016.065-.038.05-.054.033-.067.011-.074m-7.19.028-.011-.074-.032-.067-.051-.054-.065-.038-.072-.016-.075.005-.069.027-.058.047-.042.062-.022.07v.075l.022.071.042.062.058.047.07.027.074.005.072-.016.065-.038.05-.054.033-.067.011-.074m11.392-24.448-.012-.087-.034-.082-.053-.07-.07-.053-.082-.034-.087-.012-.087.012-.082.034-.07.053-.053.07-.034.082-.012.087.012.087.034.082.053.07.07.053.082.034.087.012.087-.012.082-.034.07-.053.053-.07.034-.082.012-.087m0 10.894-.012-.087-.034-.082-.053-.07-.07-.053-.082-.034-.087-.012-.087.012-.082.034-.07.053-.053.07-.034.082-.012.087.012.087.034.082.053.07.07.053.082.034.087.012.087-.012.082-.034.07-.053.053-.07.034-.082.012-.087m-7.8 13.524-.01-.074-.033-.067-.05-.054-.065-.038-.073-.016-.074.005-.07.027-.058.047-.042.062-.022.07v.075l.022.071.042.062.058.047.07.027.074.005.073-.016.064-.038.05-.054.033-.067.011-.074m-.001-7.806-.012-.073-.032-.067-.05-.055-.065-.037-.073-.017-.074.006-.07.027-.058.046-.042.062-.022.071v.075l.022.07.042.062.059.047.069.027.074.006.073-.017.064-.037.051-.055.032-.067.012-.074m-28.804.01-.01-.073-.033-.067-.05-.055-.065-.037-.073-.017-.074.006-.07.027-.058.046-.042.062-.022.071v.075l.022.07.042.062.058.047.07.027.074.006.073-.017.064-.037.051-.055.032-.067.011-.074m3.61-.009-.011-.073-.033-.068-.05-.054-.065-.038-.073-.016-.074.005-.07.028-.057.046-.042.062-.022.07v.075l.022.072.042.061.058.047.07.027.073.006.073-.017.065-.037.05-.055.033-.067.01-.074m-3.593 7.826-.01-.074-.033-.067-.05-.054-.065-.038-.073-.016-.074.005-.07.027-.058.047-.042.061-.022.072v.074l.022.071.042.062.058.046.07.028.074.005.073-.016.064-.038.051-.054.032-.067.011-.074m7.168-7.795-.01-.073-.033-.067-.05-.055-.065-.037-.073-.017-.074.006-.07.027-.058.046-.042.062-.022.071v.075l.022.07.042.062.058.047.07.027.074.006.073-.017.064-.037.051-.055.032-.067.011-.074" style="stroke-width:.1" class="nonroom" />
    </g>
    </g>
</svg>